<svg width="599" height="24" viewBox="0 0 599 24" fill="none" xmlns="http://www.w3.org/2000/svg">
<path d="M2.24121 10.5001L0.741211 10.5001L0.741211 13.5001L2.24121 13.5001L2.24121 10.5001ZM597.997 13.0607C598.583 12.4749 598.583 11.5252 597.997 10.9394L588.451 1.39344C587.865 0.80765 586.915 0.80765 586.33 1.39344C585.744 1.97922 585.744 2.92897 586.33 3.51476L594.815 12L586.33 20.4853C585.744 21.0711 585.744 22.0209 586.33 22.6066C586.915 23.1924 587.865 23.1924 588.451 22.6066L597.997 13.0607ZM2.24121 13.5001L596.936 13.5L596.936 10.5L2.24121 10.5001L2.24121 13.5001Z" fill="white"/>
</svg>
