<svg width="130" height="141" viewBox="0 0 130 141" fill="none" xmlns="http://www.w3.org/2000/svg">
<path d="M23.8075 44.0266C23.9334 44.2839 24.1481 44.4765 24.4046 44.5625C24.6611 44.6484 24.9386 44.6206 25.1763 44.4852C25.414 44.3497 25.5925 44.1177 25.6728 43.8398C25.7531 43.5619 25.7286 43.2608 25.6047 43.0025L23.7163 39.104C23.6546 38.9754 23.5701 38.8613 23.4677 38.7682C23.3652 38.6751 23.2468 38.6048 23.1193 38.5615C22.9918 38.5181 22.8576 38.5025 22.7245 38.5155C22.5914 38.5286 22.4619 38.57 22.3436 38.6374C22.2253 38.7048 22.1204 38.7969 22.035 38.9084C21.9496 39.0199 21.8853 39.1486 21.8459 39.2871C21.8064 39.4256 21.7926 39.5712 21.8052 39.7155C21.8177 39.8599 21.8564 40.0001 21.9191 40.1281L23.8075 44.0266ZM77.1715 29.3685H77.2131C77.4823 29.356 77.7359 29.2282 77.9185 29.0133C78.101 28.7984 78.1976 28.5138 78.1871 28.2218L78.0245 23.822C78.0135 23.5298 77.8959 23.2544 77.6976 23.0563C77.4993 22.8582 77.2366 22.7536 76.9672 22.7656C76.6979 22.7776 76.4439 22.9051 76.2613 23.1202C76.0786 23.3352 75.9822 23.6201 75.9932 23.9123L76.1559 28.3121C76.1668 28.5963 76.2785 28.865 76.4678 29.0619C76.6571 29.2588 76.9092 29.3686 77.1715 29.3685ZM17.1544 53.7255L14.6669 52.1679C14.4338 52.0226 14.1574 51.9824 13.8972 52.0561L10.6282 53.0049C10.3682 53.081 10.1466 53.2656 10.0117 53.5183C9.87678 53.7711 9.83955 54.0714 9.90814 54.3538L10.9595 58.6116C11.0178 58.8459 11.1455 59.0528 11.3229 59.2005C11.5004 59.3483 11.7177 59.4286 11.9414 59.4292C12.0303 59.4287 12.1189 59.4164 12.2052 59.3926L15.4742 58.4416C15.6028 58.404 15.7234 58.3392 15.8289 58.2509C15.9344 58.1627 16.0229 58.0528 16.0891 57.9274L17.5252 55.2294C17.5922 55.1043 17.6357 54.9661 17.6533 54.8228C17.6709 54.6794 17.6622 54.5337 17.6277 54.3939C17.5933 54.2542 17.5337 54.1233 17.4525 54.0086C17.3713 53.8939 17.27 53.7977 17.1544 53.7255ZM14.5418 56.4299L12.6594 56.9785L12.1337 54.8486L14.0162 54.3022L15.2599 55.081L14.5418 56.4299ZM15.0934 49.812C15.1639 50.0941 15.3343 50.3345 15.5675 50.4811L18.0569 52.0431C18.211 52.1408 18.3863 52.1921 18.5648 52.1915C18.6531 52.1912 18.741 52.1789 18.8266 52.155C19.0871 52.0784 19.3095 51.8937 19.4455 51.6408L20.8816 48.9385C21.0151 48.6847 21.0515 48.3842 20.9828 48.1016L20.104 44.5495C20.0316 44.2687 19.8606 44.0298 19.6277 43.8842C19.3948 43.7386 19.1186 43.6978 18.8583 43.7706L14.9347 44.9108C14.6747 44.9868 14.4531 45.1714 14.3185 45.4243C14.1839 45.6772 14.1472 45.9777 14.2166 46.2598L15.0934 49.812ZM18.4041 46.1846L18.9119 48.2328L18.1938 49.5839L16.9481 48.8029L16.4423 46.7547L18.4041 46.1846ZM76.6438 35.5648C76.3325 36.1508 76.1686 36.8153 76.1686 37.4917C76.1687 38.168 76.3326 38.8325 76.644 39.4185C76.9555 40.0045 77.4034 40.4914 77.943 40.8304C78.4826 41.1695 79.0949 41.3487 79.7185 41.3502C80.0312 41.3502 80.3426 41.306 80.6448 41.219C81.2096 41.0546 81.7283 40.7418 82.155 40.3081C82.5816 39.8744 82.9031 39.3333 83.091 38.7327C83.2788 38.1321 83.3272 37.4905 83.2318 36.8648C83.1365 36.2391 82.9003 35.6485 82.5443 35.1454C82.1883 34.6422 81.7234 34.2421 81.1908 33.9804C80.6581 33.7187 80.0742 33.6035 79.4907 33.645C78.9072 33.6864 78.3422 33.8833 77.8456 34.2182C77.349 34.5531 76.9362 35.0157 76.6438 35.5649V35.5648ZM78.4033 36.6664C78.5033 36.4783 78.6366 36.3136 78.7956 36.1818C78.9546 36.05 79.1362 35.9536 79.3297 35.8983C79.4576 35.8601 79.5897 35.8406 79.7224 35.8402C80.0069 35.8398 80.2858 35.9258 80.5276 36.0884C80.7694 36.2511 80.9643 36.484 81.0903 36.7606C81.2163 37.0373 81.2684 37.3466 81.2407 37.6537C81.2129 37.9608 81.1064 38.2534 80.9333 38.4982C80.7601 38.7431 80.5272 38.9304 80.2609 39.0391C79.9946 39.1477 79.7056 39.1733 79.4266 39.113C79.1476 39.0527 78.8898 38.9088 78.6823 38.6977C78.4748 38.4866 78.3259 38.2167 78.2525 37.9185C78.1999 37.7094 78.1861 37.491 78.212 37.276C78.2379 37.0611 78.3029 36.8538 78.4033 36.6664ZM91.6818 36.8406C92.2201 37.1787 92.8312 37.3568 93.4532 37.357C93.7659 37.3568 94.0773 37.3127 94.3796 37.2257C95.1749 36.9949 95.8719 36.472 96.3516 35.7463C96.8314 35.0205 97.0642 34.1368 97.0105 33.2456C96.9568 32.3545 96.6198 31.5112 96.057 30.8594C95.4942 30.2075 94.7404 29.7876 93.9241 29.671C93.1077 29.5545 92.2794 29.7486 91.5803 30.2203C90.8812 30.692 90.3545 31.412 90.09 32.2577C89.8255 33.1034 89.8396 34.0224 90.1298 34.8581C90.4201 35.6938 90.9686 36.3944 91.6818 36.8406ZM93.0644 31.9073C93.1924 31.8691 93.3244 31.8496 93.4572 31.8492C93.8453 31.8469 94.2197 32.0048 94.5044 32.291C94.7891 32.5771 94.9627 32.97 94.9901 33.39C95.0174 33.8099 94.8964 34.2254 94.6516 34.5521C94.4069 34.8789 94.0567 35.0923 93.6721 35.1492C93.2875 35.2061 92.8974 35.1021 92.5809 34.8584C92.2644 34.6147 92.0452 34.2496 91.9679 33.837C91.8905 33.4245 91.9608 32.9955 92.1645 32.6371C92.3681 32.2787 92.6899 32.0178 93.0644 31.9073ZM82.9736 31.3888C83.5119 31.7268 84.123 31.9049 84.745 31.9051C85.0577 31.9049 85.3691 31.8608 85.6714 31.7739C86.4668 31.543 87.1637 31.0202 87.6435 30.2944C88.1232 29.5686 88.3561 28.6849 88.3023 27.7937C88.2486 26.9026 87.9116 26.0593 87.3488 25.4074C86.786 24.7556 86.0322 24.3357 85.2159 24.2191C84.3996 24.1026 83.5712 24.2967 82.8721 24.7684C82.173 25.2401 81.6463 25.9601 81.3818 26.8058C81.1173 27.6515 81.1314 28.5705 81.4216 29.4062C81.7119 30.2419 82.2604 30.9426 82.9736 31.3888ZM84.3582 26.4533C84.4861 26.415 84.6182 26.3954 84.751 26.3952C85.1398 26.3927 85.5149 26.5509 85.8001 26.8375C86.0854 27.1241 86.2594 27.5177 86.2868 27.9384C86.3143 28.3591 86.1931 28.7754 85.9479 29.1027C85.7027 29.43 85.3519 29.6439 84.9666 29.7008C84.5813 29.7578 84.1905 29.6537 83.8734 29.4095C83.5564 29.1654 83.3369 28.7995 83.2594 28.3862C83.182 27.9729 83.2525 27.5432 83.4566 27.1842C83.6606 26.8252 83.983 26.5639 84.3582 26.4533ZM87.5102 39.2202C86.6775 39.4622 85.9541 40.0242 85.4749 40.8015C84.9956 41.5787 84.793 42.5184 84.9049 43.4456C85.0167 44.3728 85.4353 45.2244 86.0828 45.8418C86.7303 46.4592 87.5625 46.8004 88.4247 46.802C88.7374 46.8019 89.0488 46.7578 89.351 46.6708C90.2601 46.4042 91.0346 45.7574 91.5046 44.8723C91.9746 43.9871 92.1016 42.9359 91.8578 41.9493C91.6141 40.9627 91.0194 40.1213 90.2043 39.6096C89.3893 39.098 88.4204 38.9579 87.5102 39.2202ZM89.1943 41.5136C89.3677 41.6218 89.5194 41.7664 89.6407 41.9389C89.7619 42.1114 89.8502 42.3084 89.9005 42.5184C89.9783 42.8338 89.968 43.1671 89.8711 43.4761C89.7742 43.7852 89.595 44.0561 89.3561 44.2547C89.1172 44.4533 88.8293 44.5706 88.529 44.5917C88.2286 44.6128 87.9292 44.5369 87.6687 44.3735C87.4081 44.2101 87.1981 43.9665 87.0652 43.6736C86.9322 43.3807 86.8824 43.0516 86.9219 42.728C86.9614 42.4044 87.0885 42.1007 87.2872 41.8555C87.4858 41.6102 87.747 41.4343 88.0378 41.3501C88.1671 41.3117 88.3006 41.2921 88.4346 41.292C88.7013 41.2926 88.9633 41.369 89.1943 41.5136H89.1943ZM69.5959 93.0633H65.5334C65.2641 93.0633 65.0057 93.1794 64.8153 93.386C64.6248 93.5926 64.5178 93.8728 64.5178 94.1649C64.5178 94.4571 64.6248 94.7373 64.8153 94.9438C65.0057 95.1504 65.2641 95.2665 65.5334 95.2665H69.5959C69.8653 95.2665 70.1236 95.1504 70.3141 94.9438C70.5046 94.7373 70.6116 94.4571 70.6116 94.1649C70.6116 93.8728 70.5046 93.5926 70.3141 93.386C70.1236 93.1794 69.8653 93.0633 69.5959 93.0633ZM40.4324 60.5457C40.4827 60.7896 40.6082 61.0076 40.7882 61.1637C40.9682 61.3198 41.1918 61.4046 41.4223 61.4042C41.4977 61.4043 41.573 61.3949 41.6464 61.3762C41.7765 61.3444 41.8994 61.2851 42.0083 61.2017C42.1172 61.1183 42.2099 61.0124 42.281 60.8901C42.3521 60.7678 42.4003 60.6315 42.4228 60.4889C42.4454 60.3464 42.4417 60.2005 42.4122 60.0595L41.5196 55.7651C41.4901 55.6241 41.4354 55.4908 41.3584 55.3728C41.2815 55.2547 41.1839 55.1543 41.0711 55.0772C40.9584 55.0001 40.8328 54.9478 40.7014 54.9233C40.5701 54.8989 40.4356 54.9027 40.3056 54.9347C40.1756 54.9666 40.0527 55.026 39.9438 55.1094C39.835 55.1929 39.7424 55.2988 39.6713 55.421C39.6002 55.5433 39.552 55.6796 39.5295 55.822C39.5069 55.9645 39.5105 56.1104 39.5399 56.2514L40.4324 60.5457ZM95.5142 61.3762C95.5877 61.3949 95.6629 61.4043 95.7384 61.4042C95.9688 61.4046 96.1925 61.3198 96.3724 61.1637C96.5524 61.0076 96.6779 60.7896 96.7282 60.5457L97.6208 56.2514C97.6803 55.9666 97.633 55.668 97.4894 55.421C97.3458 55.1741 97.1177 54.9991 96.8552 54.9347C96.5926 54.8702 96.3173 54.9214 96.0896 55.0772C95.8619 55.2329 95.7006 55.4804 95.6412 55.7651L94.7485 60.0595C94.719 60.2005 94.7154 60.3464 94.7379 60.4889C94.7604 60.6315 94.8086 60.7678 94.8797 60.8901C94.9508 61.0123 95.0434 61.1182 95.1523 61.2017C95.2612 61.2851 95.3842 61.3444 95.5142 61.3762ZM25.5571 72.1272H28.9432C29.0766 72.1272 29.2086 72.0987 29.3318 72.0434C29.4551 71.988 29.567 71.9068 29.6613 71.8045L31.6925 69.6014C31.7868 69.4991 31.8617 69.3777 31.9127 69.2441C31.9637 69.1104 31.99 68.9672 31.99 68.8226C31.99 68.6779 31.9637 68.5347 31.9127 68.4011C31.8617 68.2674 31.7868 68.146 31.6925 68.0438L29.6613 65.8406C29.567 65.7383 29.4551 65.6571 29.3318 65.6018C29.2086 65.5464 29.0766 65.5179 28.9432 65.5179H25.5571C25.4237 65.5178 25.2916 65.5463 25.1683 65.6016C25.0451 65.6569 24.9331 65.7381 24.8388 65.8404C24.7444 65.9427 24.6696 66.0641 24.6186 66.1978C24.5676 66.3315 24.5414 66.4748 24.5415 66.6195V71.0257C24.5414 71.1704 24.5676 71.3137 24.6186 71.4473C24.6697 71.581 24.7445 71.7025 24.8388 71.8048C24.9331 71.9071 25.0451 71.9882 25.1684 72.0435C25.2916 72.0989 25.4237 72.1273 25.5571 72.1272ZM26.5727 67.721H28.5227L29.5383 68.8225L28.5227 69.9241H26.5727V67.721ZM35.6737 69.6014L37.7049 71.8045C37.7992 71.9068 37.9111 71.988 38.0343 72.0434C38.1575 72.0987 38.2896 72.1272 38.423 72.1272H41.807C41.9404 72.1273 42.0725 72.0989 42.1958 72.0435C42.3191 71.9882 42.4311 71.9071 42.5254 71.8047C42.6197 71.7024 42.6945 71.581 42.7455 71.4473C42.7965 71.3136 42.8228 71.1703 42.8227 71.0256V66.6194C42.8228 66.4747 42.7965 66.3314 42.7455 66.1977C42.6945 66.0641 42.6197 65.9426 42.5254 65.8403C42.4311 65.738 42.3191 65.6568 42.1958 65.6015C42.0725 65.5462 41.9404 65.5177 41.807 65.5178H38.423C38.2896 65.5178 38.1575 65.5463 38.0343 65.6017C37.9111 65.657 37.7992 65.7382 37.7049 65.8405L35.6737 68.0437C35.5793 68.1459 35.5045 68.2673 35.4535 68.401C35.4024 68.5346 35.3761 68.6779 35.3761 68.8225C35.3761 68.9672 35.4024 69.1104 35.4535 69.244C35.5045 69.3777 35.5793 69.4991 35.6737 69.6014ZM38.8435 67.721H40.7915V69.9241H38.8435L37.8279 68.8225L38.8435 67.721ZM34.4002 70.9719C34.2061 70.7729 33.9492 70.6621 33.6821 70.6621C33.4151 70.6621 33.1581 70.7729 32.9641 70.9719L30.9328 73.1794C30.8385 73.2816 30.7636 73.4031 30.7126 73.5367C30.6615 73.6703 30.6353 73.8136 30.6353 73.9582V77.6351C30.6352 77.7798 30.6614 77.9231 30.7124 78.0568C30.7634 78.1905 30.8382 78.3119 30.9326 78.4142C31.0269 78.5165 31.1389 78.5977 31.2621 78.653C31.3854 78.7083 31.5175 78.7368 31.6509 78.7367H35.7134C35.8468 78.7368 35.9789 78.7083 36.1022 78.653C36.2254 78.5977 36.3374 78.5165 36.4317 78.4142C36.5261 78.3119 36.6009 78.1905 36.6519 78.0568C36.7029 77.9231 36.7291 77.7798 36.729 77.6351V73.9581C36.729 73.8135 36.7028 73.6702 36.6517 73.5366C36.6007 73.4029 36.5258 73.2815 36.4315 73.1793L34.4002 70.9719ZM34.6977 76.5335H32.6665V74.4142L33.6821 73.3105L34.6977 74.4142V76.5335ZM32.964 66.6753C33.0583 66.7776 33.1702 66.8588 33.2934 66.9142C33.4166 66.9695 33.5487 66.998 33.682 66.998C33.8154 66.998 33.9475 66.9695 34.0707 66.9142C34.1939 66.8588 34.3058 66.7776 34.4001 66.6753L36.4313 64.4679C36.5257 64.3657 36.6005 64.2442 36.6516 64.1106C36.7026 63.977 36.7289 63.8337 36.7289 63.6891V60.01C36.729 59.8653 36.7028 59.7221 36.6517 59.5884C36.6007 59.4547 36.5259 59.3332 36.4316 59.2309C36.3373 59.1286 36.2253 59.0475 36.102 58.9921C35.9788 58.9368 35.8467 58.9084 35.7133 58.9085H31.6508C31.5174 58.9084 31.3853 58.9368 31.262 58.9921C31.1388 59.0475 31.0268 59.1286 30.9325 59.2309C30.8381 59.3332 30.7633 59.4547 30.7123 59.5884C30.6613 59.7221 30.6351 59.8653 30.6352 60.01V63.6891C30.6351 63.8337 30.6614 63.977 30.7125 64.1106C30.7635 64.2442 30.8383 64.3657 30.9327 64.4679L32.964 66.6753ZM32.6665 61.1116H34.6977V63.2329L33.6821 64.3367L32.6665 63.2329V61.1116ZM49.2834 80.1759C47.8773 80.1759 46.5028 80.6282 45.3337 81.4754C44.1645 82.3227 43.2533 83.527 42.7152 84.936C42.1771 86.345 42.0363 87.8954 42.3107 89.3912C42.585 90.887 43.2621 92.2609 44.2563 93.3393C45.2506 94.4177 46.5174 95.1521 47.8965 95.4496C49.2755 95.7472 50.705 95.5945 52.0041 95.0108C53.3031 94.4272 54.4135 93.4389 55.1947 92.1708C55.9758 90.9028 56.3928 89.4119 56.3928 87.8869C56.3905 85.8426 55.6408 83.8827 54.308 82.4371C52.9752 80.9916 51.1683 80.1784 49.2834 80.1759ZM49.2834 93.3947C48.2791 93.3947 47.2973 93.0716 46.4622 92.4664C45.6271 91.8612 44.9762 91.001 44.5919 89.9946C44.2075 88.9882 44.1069 87.8808 44.3029 86.8123C44.4988 85.7439 44.9825 84.7625 45.6927 83.9923C46.4028 83.222 47.3077 82.6974 48.2927 82.4849C49.2778 82.2724 50.2988 82.3814 51.2267 82.7983C52.1547 83.2152 52.9477 83.9211 53.5057 84.8269C54.0637 85.7326 54.3616 86.7975 54.3616 87.8869C54.3603 89.3472 53.8249 90.7474 52.8728 91.78C51.9208 92.8126 50.6298 93.3933 49.2834 93.3947Z" fill="#FFFEFE"/>
<path d="M67.5654 80.9473C68.1263 80.9473 68.5811 80.4541 68.5811 79.8457C68.5811 79.2373 68.1263 78.7441 67.5654 78.7441C67.0045 78.7441 66.5498 79.2373 66.5498 79.8457C66.5498 80.4541 67.0045 80.9473 67.5654 80.9473Z" fill="#FFFEFE"/>
<path d="M63.5029 80.9473C64.0638 80.9473 64.5186 80.4541 64.5186 79.8457C64.5186 79.2373 64.0638 78.7441 63.5029 78.7441C62.942 78.7441 62.4873 79.2373 62.4873 79.8457C62.4873 80.4541 62.942 80.9473 63.5029 80.9473Z" fill="#FFFEFE"/>
<path d="M71.6279 80.9473C72.1888 80.9473 72.6436 80.4541 72.6436 79.8457C72.6436 79.2373 72.1888 78.7441 71.6279 78.7441C71.067 78.7441 70.6123 79.2373 70.6123 79.8457C70.6123 80.4541 71.067 80.9473 71.6279 80.9473Z" fill="#FFFEFE"/>
<path d="M69.5967 77.6426C70.1576 77.6426 70.6123 77.1494 70.6123 76.541C70.6123 75.9326 70.1576 75.4395 69.5967 75.4395C69.0358 75.4395 68.5811 75.9326 68.5811 76.541C68.5811 77.1494 69.0358 77.6426 69.5967 77.6426Z" fill="#FFFEFE"/>
<path d="M65.5342 77.6426C66.0951 77.6426 66.5498 77.1494 66.5498 76.541C66.5498 75.9326 66.0951 75.4395 65.5342 75.4395C64.9733 75.4395 64.5186 75.9326 64.5186 76.541C64.5186 77.1494 64.9733 77.6426 65.5342 77.6426Z" fill="#FFFEFE"/>
<path d="M61.4717 77.6426C62.0326 77.6426 62.4873 77.1494 62.4873 76.541C62.4873 75.9326 62.0326 75.4395 61.4717 75.4395C60.9108 75.4395 60.4561 75.9326 60.4561 76.541C60.4561 77.1494 60.9108 77.6426 61.4717 77.6426Z" fill="#FFFEFE"/>
<path d="M73.6592 77.6426C74.2201 77.6426 74.6748 77.1494 74.6748 76.541C74.6748 75.9326 74.2201 75.4395 73.6592 75.4395C73.0983 75.4395 72.6436 75.9326 72.6436 76.541C72.6436 77.1494 73.0983 77.6426 73.6592 77.6426Z" fill="#FFFEFE"/>
<path d="M87.877 80.1756C86.4709 80.1756 85.0963 80.6278 83.9272 81.4751C82.7581 82.3224 81.8468 83.5267 81.3088 84.9357C80.7707 86.3447 80.6299 87.8951 80.9042 89.3908C81.1785 90.8866 81.8556 92.2606 82.8499 93.339C83.8441 94.4174 85.1109 95.1518 86.49 95.4493C87.8691 95.7468 89.2985 95.5941 90.5976 95.0105C91.8967 94.4269 93.007 93.4385 93.7882 92.1705C94.5694 90.9024 94.9863 89.4116 94.9863 87.8865C94.984 85.8422 94.2343 83.8823 92.9015 82.4368C91.5688 80.9912 89.7618 80.178 87.877 80.1756ZM87.877 93.3943C86.8726 93.3943 85.8908 93.0713 85.0557 92.4661C84.2206 91.8609 83.5697 91.0007 83.1854 89.9943C82.801 88.9878 82.7005 87.8804 82.8964 86.812C83.0923 85.7436 83.576 84.7622 84.2862 83.9919C84.9964 83.2216 85.9012 82.697 86.8863 82.4845C87.8713 82.272 88.8924 82.3811 89.8203 82.7979C90.7482 83.2148 91.5413 83.9208 92.0993 84.8265C92.6573 85.7323 92.9551 86.7972 92.9551 87.8865C92.9538 89.3469 92.4184 90.747 91.4664 91.7796C90.5143 92.8122 89.2234 93.393 87.877 93.3943ZM96.002 66.0747C95.2989 66.0747 94.6116 66.3008 94.0271 66.7245C93.4425 67.1481 92.9869 67.7503 92.7179 68.4548C92.4488 69.1592 92.3784 69.9345 92.5156 70.6823C92.6527 71.4302 92.9913 72.1172 93.4884 72.6564C93.9855 73.1956 94.6189 73.5628 95.3085 73.7116C95.998 73.8603 96.7127 73.784 97.3623 73.4922C98.0118 73.2004 98.567 72.7062 98.9576 72.0722C99.3482 71.4381 99.5566 70.6927 99.5566 69.9302C99.5555 68.908 99.1806 67.9281 98.5142 67.2053C97.8478 66.4826 96.9444 66.076 96.002 66.0747ZM96.002 71.5825C95.7007 71.5825 95.4061 71.4856 95.1556 71.3041C94.9051 71.1225 94.7098 70.8644 94.5945 70.5625C94.4792 70.2606 94.449 69.9283 94.5078 69.6078C94.5666 69.2873 94.7117 68.9929 94.9247 68.7618C95.1378 68.5307 95.4092 68.3733 95.7048 68.3096C96.0003 68.2458 96.3066 68.2785 96.585 68.4036C96.8633 68.5287 97.1012 68.7405 97.2686 69.0122C97.436 69.2839 97.5254 69.6034 97.5254 69.9302C97.5246 70.3681 97.3639 70.7879 97.0783 71.0976C96.7928 71.4073 96.4058 71.5817 96.002 71.5825ZM110.221 66.0747C109.518 66.0747 108.83 66.3008 108.246 66.7245C107.661 67.1481 107.206 67.7503 106.937 68.4548C106.668 69.1592 106.597 69.9345 106.734 70.6823C106.871 71.4302 107.21 72.1172 107.707 72.6564C108.204 73.1956 108.838 73.5628 109.527 73.7116C110.217 73.8603 110.931 73.784 111.581 73.4922C112.231 73.2004 112.786 72.7062 113.176 72.0722C113.567 71.4381 113.775 70.6927 113.775 69.9302C113.774 68.908 113.399 67.9281 112.733 67.2053C112.067 66.4826 111.163 66.076 110.221 66.0747ZM110.221 71.5825C109.919 71.5825 109.625 71.4856 109.374 71.3041C109.124 71.1225 108.929 70.8644 108.813 70.5625C108.698 70.2606 108.668 69.9283 108.727 69.6078C108.785 69.2873 108.93 68.9929 109.143 68.7618C109.357 68.5307 109.628 68.3733 109.924 68.3096C110.219 68.2458 110.525 68.2785 110.804 68.4036C111.082 68.5287 111.32 68.7405 111.487 69.0122C111.655 69.2839 111.744 69.6034 111.744 69.9302C111.743 70.3681 111.583 70.7879 111.297 71.0976C111.012 71.4073 110.625 71.5817 110.221 71.5825ZM103.111 66.0747C103.814 66.0747 104.502 65.8486 105.086 65.4249C105.671 65.0013 106.126 64.3992 106.395 63.6947C106.664 62.9902 106.735 62.215 106.598 61.4671C106.461 60.7192 106.122 60.0322 105.625 59.493C105.128 58.9538 104.494 58.5866 103.805 58.4379C103.115 58.2891 102.401 58.3654 101.751 58.6573C101.101 58.9491 100.546 59.4432 100.156 60.0773C99.7651 60.7113 99.5566 61.4567 99.5566 62.2192C99.5578 63.2414 99.9327 64.2213 100.599 64.9441C101.265 65.6669 102.169 66.0735 103.111 66.0747ZM103.111 60.5669C103.413 60.5669 103.707 60.6638 103.958 60.8454C104.208 61.0269 104.403 61.285 104.519 61.5869C104.634 61.8888 104.664 62.2211 104.605 62.5416C104.547 62.8621 104.402 63.1565 104.189 63.3876C103.976 63.6187 103.704 63.7761 103.409 63.8398C103.113 63.9036 102.807 63.8709 102.528 63.7458C102.25 63.6207 102.012 63.409 101.845 63.1372C101.677 62.8655 101.588 62.546 101.588 62.2192C101.589 61.7813 101.749 61.3615 102.035 61.0518C102.32 60.7421 102.708 60.5677 103.111 60.5669ZM103.111 73.7856C102.408 73.7856 101.721 74.0118 101.136 74.4354C100.552 74.8591 100.096 75.4612 99.8272 76.1657C99.5582 76.8702 99.4878 77.6454 99.625 78.3933C99.7621 79.1412 100.101 79.8281 100.598 80.3673C101.095 80.9065 101.728 81.2737 102.418 81.4225C103.107 81.5713 103.822 81.4949 104.472 81.2031C105.121 80.9113 105.676 80.4171 106.067 79.7831C106.458 79.1491 106.666 78.4037 106.666 77.6411C106.665 76.619 106.29 75.639 105.624 74.9163C104.957 74.1935 104.054 73.7869 103.111 73.7856ZM103.111 79.2935C102.81 79.2935 102.515 79.1966 102.265 79.015C102.014 78.8334 101.819 78.5754 101.704 78.2734C101.589 77.9715 101.558 77.6393 101.617 77.3188C101.676 76.9982 101.821 76.7038 102.034 76.4727C102.247 76.2416 102.519 76.0843 102.814 76.0205C103.11 75.9568 103.416 75.9895 103.694 76.1145C103.973 76.2396 104.211 76.4514 104.378 76.7231C104.545 76.9949 104.635 77.3143 104.635 77.6411C104.634 78.0791 104.473 78.4989 104.188 78.8086C103.902 79.1183 103.515 79.2926 103.111 79.2935Z" fill="#FFFEFE"/>
<path d="M117.969 64.6311L114.625 55.2614C114.616 55.2381 114.601 55.2195 114.592 55.1966C114.582 55.1713 114.577 55.1465 114.565 55.1215C110.71 44.8602 105.713 35.1482 99.6857 26.2012L94.2149 18.0837C93.9045 17.6312 93.4937 17.271 93.0207 17.0367C92.5477 16.8024 92.0278 16.7015 91.5092 16.7433L90.3954 16.8444L89.7081 14.0625C89.6584 13.865 89.5593 13.6863 89.4217 13.5461C89.2841 13.406 89.1134 13.31 88.9285 13.2686L88.3076 13.1309C84.1639 12.2032 79.8553 12.7315 76.0071 14.6391C75.7882 14.7473 75.6118 14.9362 75.5094 15.1722C75.4069 15.4083 75.3851 15.6761 75.4477 15.928L76.0803 18.4838C73.4641 18.8591 70.9685 19.264 68.5374 19.7277L68.5307 19.7275C68.4808 19.7368 68.4298 19.7491 68.3798 19.7583C67.1439 19.9924 65.9093 20.228 64.6884 20.4804C63.3931 20.7235 62.0958 20.9925 60.856 21.298C59.5607 21.5626 58.2634 21.8767 57.0097 22.2059C55.9617 22.4531 54.9045 22.7278 53.8487 22.999C53.6293 23.0558 53.4086 23.1015 53.1892 23.1589V23.1633C53.1119 23.1784 53.0365 23.1934 53.0008 23.2042C52.9403 23.2203 52.8813 23.2407 52.8209 23.2569C51.2132 23.6809 49.6048 24.1258 48.0079 24.5962C44.7845 25.5192 41.446 26.5863 38.0957 27.7611C36.4393 28.3163 34.8028 28.9142 33.2 29.5231L33.1838 29.5292L33.1703 29.5339L33.1385 29.5461C32.4258 29.788 31.7168 30.0519 31.0637 30.3235C30.7344 30.444 30.4269 30.5645 30.0103 30.7409L29.8179 30.8119C29.2744 31.0163 28.7527 31.2185 28.2588 31.4337C26.1218 32.2746 23.82 33.2482 21.139 34.4363L20.5107 31.8941C20.4438 31.645 20.3001 31.4284 20.1037 31.2804C19.9074 31.1324 19.6701 31.0619 19.4316 31.0808C15.2188 31.5144 11.2433 33.3941 8.08316 36.4466L7.60906 36.9027C7.46812 37.0383 7.36472 37.2137 7.31042 37.4094C7.25612 37.605 7.25306 37.8132 7.30159 38.0107L7.99079 40.8061L6.97629 41.3261C6.51047 41.5709 6.10865 41.9384 5.80752 42.3951C5.5064 42.8517 5.31558 43.3829 5.25251 43.9402L4.25671 53.9423C2.58222 70.726 3.79696 87.701 7.83912 104.003C8.38159 106.176 9.38803 108.181 10.777 109.854C10.739 111.232 10.6897 112.609 10.6897 113.993C10.6809 116.819 11.4489 119.583 12.8955 121.934C14.3421 124.284 16.4018 126.114 18.8115 127.189L18.8278 127.197C20.424 127.929 22.1383 128.308 23.8709 128.313C24.3306 128.314 24.7901 128.288 25.2475 128.238C26.3115 128.132 27.3153 127.655 28.1089 126.879C28.9026 126.103 29.4436 125.07 29.6513 123.933C31.0296 116.423 33.7574 109.28 37.6791 102.913L38.1631 102.125C38.6262 101.37 39.2544 100.751 39.9916 100.323C40.7287 99.8952 41.5521 99.6717 42.3882 99.6724H44.4959C46.0031 100.399 47.6341 100.774 49.2833 100.774C50.9326 100.774 52.5635 100.399 54.0707 99.6724H83.0897C84.5969 100.399 86.2279 100.774 87.8771 100.774C89.5264 100.774 91.1573 100.399 92.6645 99.6724H94.7723C95.6084 99.6716 96.4317 99.8952 97.1689 100.323C97.9061 100.751 98.5343 101.37 98.9974 102.125L99.9079 103.605C103.547 109.517 106.078 116.146 107.359 123.117C107.638 124.584 108.374 125.901 109.444 126.847C110.514 127.794 111.852 128.311 113.232 128.313H113.268C116.769 128.313 120.128 126.804 122.604 124.119C125.08 121.433 126.471 117.791 126.471 113.993C126.482 97.1095 123.599 80.3712 117.969 64.6311ZM111.236 52.4112C111.322 52.6202 111.409 52.8285 111.493 53.0378L111.236 52.9873V52.4112ZM87.9009 15.291L88.3381 17.031L87.8573 17.0746C84.7313 17.3453 81.4491 17.7308 78.1118 18.1966L77.6376 16.2786C80.8946 14.8615 84.4647 14.518 87.9009 15.291ZM77.2888 20.5275C77.3189 20.5304 77.3411 20.5579 77.3718 20.5579C77.4169 20.5585 77.462 20.5549 77.5066 20.5471C81.462 19.9705 85.3242 19.5122 88.988 19.1874L89.7179 19.1228L89.7482 19.1127L91.652 18.94C91.8284 18.9362 92.0033 18.9749 92.1642 19.0534C92.3251 19.1319 92.4679 19.2482 92.5823 19.3938L98.0472 27.5006C102.511 34.1328 106.404 41.1949 109.678 48.5984C106.002 46.7068 101.88 46.0834 97.8667 46.8124C97.6295 46.8552 97.414 46.9879 97.2586 47.1868C97.1031 47.3858 97.0177 47.6381 97.0176 47.8989V50.5431C94.6007 50.2081 92.18 49.917 89.7557 49.6697C88.673 49.5578 87.5899 49.4732 86.5068 49.3786L86.4391 49.3725C85.389 48.4373 84.3542 47.5895 83.2809 46.7995L82.5628 46.281C81.3945 45.4053 80.2083 44.5942 79.0419 43.8756C77.7041 43.0375 76.5846 41.8444 75.7886 40.4083C74.9926 38.9721 74.5463 37.3401 74.4914 35.6655L73.9556 21.0253C75.0466 20.8538 76.1455 20.6854 77.2888 20.5275ZM109.203 52.5872L108.733 52.4947C108.385 52.426 108.035 52.3812 107.686 52.3142C105.938 51.9888 104.161 51.6827 102.354 51.3958C101.252 51.2135 100.152 50.9908 99.049 50.8263V48.8544C102.533 48.3987 106.064 49.0685 109.199 50.7799L109.203 52.5872ZM77.5835 51.004C78.2882 51.0351 78.9924 51.0796 79.6967 51.1178C82.054 51.2455 84.4076 51.4142 86.7576 51.6238C87.214 51.6645 87.6703 51.7031 88.1266 51.7468L85.106 68.5124C84.9702 69.2643 84.5979 69.9416 84.0526 70.4287C83.5073 70.9157 82.823 71.1821 82.1166 71.1824H55.0439C54.3375 71.1821 53.6532 70.9157 53.1079 70.4287C52.5626 69.9416 52.1903 69.2643 52.0545 68.5124L49.0339 51.7468C49.4902 51.7031 49.9465 51.6646 50.403 51.6238C52.7526 51.4147 55.1063 51.246 57.4639 51.1178C58.1682 51.0796 58.8724 51.0351 59.5771 51.004C65.5746 50.741 71.5767 50.741 77.5835 51.004ZM70.2536 48.5951C71.8433 47.2791 73.7682 46.5259 75.7664 46.438C77.7647 46.35 79.7395 46.9315 81.4224 48.1034L82.1239 48.6121C82.287 48.749 82.4303 48.9121 82.5858 49.0593C82.1345 49.0287 81.6824 49.017 81.231 48.9893L81.0934 48.9807C79.601 48.8896 78.109 48.8092 76.6161 48.7509C75.9553 48.7252 75.2945 48.7033 74.6338 48.6852C73.577 48.6546 72.52 48.6394 71.4627 48.6247C71.0595 48.6191 70.6566 48.5984 70.2536 48.5951ZM69.7795 21.739C70.4907 21.6077 71.2104 21.4818 71.9335 21.3588L72.4603 35.7538C72.5176 37.363 72.871 38.9435 73.4995 40.4025C74.128 41.8614 75.019 43.1694 76.1202 44.2496C75.0988 44.2469 74.0813 44.3873 73.093 44.6674C70.8414 45.3189 68.8197 46.683 67.2858 48.5858C66.7564 48.5891 66.2272 48.6173 65.6978 48.6247C64.6405 48.6393 63.5834 48.6545 62.5267 48.6852C61.8657 48.7044 61.205 48.7263 60.5444 48.7508C59.0514 48.8092 57.5595 48.8896 56.067 48.9806L55.9294 48.9892C55.1457 49.0372 54.3618 49.0801 53.5783 49.1371C52.8321 49.1912 52.0872 49.2559 51.3419 49.3178L67.1401 44.7233C68.2737 44.3846 69.2653 43.6334 69.9487 42.5956C70.632 41.5579 70.9655 40.2968 70.8932 39.024L69.7795 21.739ZM33.8328 31.6165C39.7577 29.4061 45.9179 27.4465 52.1024 25.7241C52.8217 25.5289 53.5383 25.3424 54.2581 25.1572C56.2631 24.6383 58.2711 24.1482 60.2822 23.6869C60.4751 23.6438 60.6607 23.5932 60.855 23.5515C62.9459 23.0794 65.0301 22.6494 67.1033 22.2456C67.3247 22.2027 67.5462 22.1579 67.7676 22.1156L68.8659 39.1705C68.9088 39.9353 68.7082 40.6929 68.2976 41.3164C67.887 41.9399 67.2914 42.3915 66.6105 42.5956L40.4661 50.199C40.3593 50.225 40.2514 50.2448 40.1427 50.2585V47.899C40.1426 47.6382 40.0573 47.3859 39.9018 47.1869C39.7463 46.988 39.5308 46.8553 39.2937 46.8125C38.2215 46.6198 37.1367 46.5212 36.0499 46.5177L30.0103 33.0795C31.2779 32.5782 32.5494 32.0985 33.8328 31.6165ZM38.1115 48.8542V50.8262C37.0083 50.9907 35.9085 51.2134 34.8064 51.3957C32.9998 51.6832 31.2225 51.9893 29.4747 52.3141C29.126 52.3811 28.7758 52.4259 28.4273 52.4946L27.9552 52.5879V50.782L27.9612 50.7798C30.2724 49.5221 32.8078 48.8239 35.3922 48.7333C35.4498 48.7363 35.5075 48.7337 35.5646 48.7256C36.4153 48.703 37.2664 48.746 38.1115 48.8542ZM28.097 33.8483L33.853 46.6537C33.2289 46.7266 32.6089 46.8294 31.9938 46.9665L26.0368 34.6929C26.7421 34.3978 27.4288 34.1163 28.097 33.8483ZM9.43199 38.0946C12.0519 35.563 15.3015 33.9249 18.7749 33.385L19.2469 35.2939C16.198 36.6869 13.186 38.1365 10.3008 39.6222L10.1789 39.6848C10.0734 39.7383 9.96157 39.7903 9.85646 39.8438L9.42599 38.0989L9.43199 38.0946ZM9.80287 103.433C5.82386 87.394 4.62793 70.6924 6.27601 54.1792L7.2699 44.1877C7.29363 43.9997 7.36008 43.821 7.46326 43.6678C7.56643 43.5146 7.70311 43.3916 7.861 43.3099L10.6831 41.8639C13.9307 40.2085 17.3437 38.5767 20.8559 37.0125C20.9566 36.9652 21.0495 36.9002 21.1308 36.8203C22.1936 36.3452 23.1842 35.9114 24.135 35.5012L29.9703 47.5244C29.0445 47.8465 28.1412 48.2407 27.2677 48.7038C27.2181 48.6449 27.1627 48.5922 27.1023 48.5466C26.9863 48.4733 26.8579 48.4258 26.7247 48.407C26.5915 48.3881 26.4562 48.3983 26.3267 48.4369L23.0557 49.4072C22.799 49.483 22.5803 49.6654 22.4467 49.9149L21.0045 52.6022C20.8693 52.8543 20.8316 53.1542 20.8996 53.4364C20.9676 53.7186 21.1358 53.9601 21.3675 54.1082L22.6925 54.9501C22.635 55.0506 22.5827 55.1546 22.5359 55.2614L22.0011 56.7599L20.459 55.7949C20.3434 55.7226 20.2157 55.6756 20.0833 55.6568C19.9509 55.638 19.8164 55.6476 19.6875 55.6852C19.5585 55.7227 19.4377 55.7875 19.3318 55.8757C19.2259 55.964 19.1371 56.074 19.0705 56.1994L17.6502 58.8866C17.5176 59.1385 17.4813 59.4366 17.549 59.7172L18.4218 63.2865C18.4766 63.5179 18.6004 63.7231 18.7739 63.8702C18.9474 64.0173 19.1609 64.098 19.3812 64.0998L19.1915 64.6312C14.4254 77.9758 11.6296 92.0521 10.9071 106.342C10.4235 105.429 10.0522 104.451 9.80287 103.433ZM25.9239 51.0698V52.9872L24.831 53.2024C24.6384 53.2471 24.4504 53.3125 24.2698 53.3976L23.2678 52.7613L23.9919 51.4145L25.8724 50.8551L25.9239 51.0698ZM21.259 58.8387L20.2727 61.602L20.1218 61.6469L19.6199 59.5902L20.3261 58.2541L21.259 58.8387ZM19.2945 125.042C17.3358 124.08 15.674 122.526 14.5082 120.567C13.3423 118.607 12.7218 116.325 12.7209 113.993C12.7101 97.382 15.5459 80.9137 21.0839 65.4271L24.4283 56.0574C24.4917 55.887 24.5927 55.7361 24.7226 55.6182L24.7534 55.5952C24.882 55.483 25.0339 55.4068 25.196 55.3732L27.868 54.8457C28.6662 54.6885 29.5019 54.55 30.3166 54.4004C31.8701 54.1058 33.4262 53.8546 34.9819 53.5961C36.3983 53.3699 37.8147 53.1425 39.2561 52.942C39.3354 52.9256 39.4126 52.8988 39.4859 52.8621C39.8787 52.8058 40.273 52.7672 40.6661 52.7131C41.3776 52.6151 42.0902 52.5414 42.8021 52.4508L45.7743 66.6922C46.1226 68.3237 46.0823 70.0244 45.6572 71.6343C45.2321 73.2441 44.4361 74.7101 43.3443 75.8942C42.336 76.9878 41.3732 78.1387 40.4335 79.3161C40.2525 79.5357 40.0778 79.7601 39.911 79.9928C34.8918 86.4097 31.0511 93.8091 28.5959 101.792L22.8077 120.654C22.2113 122.559 20.9499 124.134 19.2945 125.042V125.042ZM36.473 100.903L35.989 101.69C31.9195 108.298 29.0892 115.709 27.6597 123.502C27.535 124.175 27.2132 124.787 26.742 125.246C26.2709 125.704 25.6757 125.986 25.0452 126.047C23.9591 126.159 22.8639 126.104 21.7921 125.884C23.1536 124.709 24.1753 123.135 24.7358 121.349L30.5241 102.489C31.9717 97.7927 33.9154 93.2941 36.3163 89.0826C36.6726 88.4571 37.0569 87.8552 37.4314 87.2447C37.4217 87.4588 37.4014 87.6698 37.4014 87.8864C37.4023 89.727 37.7677 91.5459 38.4729 93.22C39.1781 94.8942 40.2067 96.3845 41.489 97.59C40.4827 97.7195 39.5139 98.0825 38.6484 98.6541C37.7829 99.2258 37.0409 99.9928 36.473 100.903V100.903ZM53.3787 97.5736C52.0977 98.2274 50.6993 98.5664 49.2835 98.5664C47.8677 98.5664 46.4693 98.2275 45.1883 97.5737C43.1432 96.5598 41.4795 94.8176 40.4735 92.6365C39.4674 90.4554 39.1797 87.9666 39.658 85.5836C40.1363 83.2006 41.3519 81.0667 43.1028 79.5366C44.8538 78.0064 47.0346 77.172 49.2832 77.172C51.5318 77.1719 53.7127 78.0063 55.4637 79.5364C57.2146 81.0665 58.4303 83.2003 58.9087 85.5833C59.387 87.9663 59.0994 90.4551 58.0934 92.6362C57.0874 94.8174 55.4238 96.5596 53.3787 97.5736ZM57.2005 97.4692C59.1976 95.5464 60.5376 92.9485 61.0034 90.0965C61.4692 87.2444 61.0335 84.3054 59.7668 81.7555C58.5002 79.2056 56.4768 77.1943 54.0245 76.0475C51.5723 74.9007 48.8349 74.6856 46.2558 75.437C47.0611 74.0848 47.6085 72.5713 47.8658 70.9859C48.1231 69.4004 48.0851 67.7752 47.754 66.206L44.8312 52.2016C45.5536 52.1171 46.2752 52.0125 46.998 51.9355L50.0591 68.934C50.2863 70.1872 50.9075 71.316 51.8166 72.1279C52.7257 72.9397 53.8664 73.3842 55.0439 73.3855H82.1166C83.2942 73.3841 84.4349 72.9397 85.3439 72.1278C86.253 71.316 86.8742 70.1872 87.1015 68.934L90.1624 51.9365C90.8851 52.0132 91.6066 52.1179 92.329 52.2024L89.4065 66.206C89.0754 67.7752 89.0374 69.4004 89.2947 70.9859C89.552 72.5713 90.0994 74.0848 90.9047 75.437C88.3273 74.6936 85.5941 74.9139 83.1464 76.0626C80.6986 77.2112 78.6793 79.221 77.4143 81.7675C76.1492 84.3141 75.7124 87.2487 76.1743 90.0977C76.6362 92.9466 77.9699 95.5436 79.96 97.4692L57.2005 97.4692ZM91.9725 97.5736C90.6914 98.2274 89.2931 98.5664 87.8773 98.5664C86.4615 98.5664 85.0631 98.2275 83.782 97.5737C81.7369 96.5598 80.0732 94.8176 79.0672 92.6365C78.0612 90.4554 77.7734 87.9666 78.2518 85.5836C78.7301 83.2006 79.9456 81.0667 81.6966 79.5366C83.4475 78.0064 85.6284 77.172 87.877 77.172C90.1255 77.1719 92.3065 78.0063 94.0574 79.5364C95.8084 81.0665 97.024 83.2003 97.5024 85.5833C97.9808 87.9663 97.6931 90.4551 96.6872 92.6362C95.6812 94.8174 94.0175 96.5596 91.9725 97.5736ZM113.268 126.11H113.236C112.324 126.111 111.44 125.77 110.732 125.147C110.025 124.524 109.537 123.655 109.35 122.687C108.02 115.433 105.385 108.534 101.598 102.383L100.687 100.903C100.12 99.9929 99.3776 99.2259 98.5121 98.6542C97.6466 98.0826 96.6779 97.7197 95.6716 97.5902C96.9539 96.3846 97.9825 94.8944 98.6877 93.2202C99.3929 91.5461 99.7583 89.7272 99.7591 87.8866C99.7591 87.6692 99.7388 87.4572 99.729 87.2425C100.104 87.8536 100.489 88.4564 100.846 89.0828C103.246 93.2948 105.189 97.7933 106.636 102.489L112.425 121.347C112.985 123.136 114.009 124.712 115.372 125.887C114.679 126.033 113.974 126.107 113.268 126.11ZM121.157 122.573C120.196 123.601 119.071 124.432 117.837 125.024C116.195 124.114 114.945 122.545 114.353 120.652L108.565 101.792C106.111 93.8075 102.27 86.4073 97.2486 79.9914C97.0822 79.7596 96.9079 79.5359 96.7276 79.3169C95.7878 78.1393 94.8247 76.9881 93.8161 75.8942C92.7243 74.7102 91.9284 73.2442 91.5033 71.6343C91.0781 70.0244 91.0378 68.3237 91.3862 66.6923L94.3583 52.4517C95.1475 52.5521 95.9375 52.633 96.7263 52.7425C97.0421 52.7862 97.3591 52.8169 97.6747 52.8622C97.748 52.8989 97.8252 52.9257 97.9044 52.9421C99.3376 53.1414 100.746 53.3677 102.155 53.5925C103.722 53.8527 105.291 54.1058 106.856 54.4027C107.671 54.5523 108.507 54.6908 109.305 54.8482L111.968 55.3732C112.138 55.4069 112.297 55.4871 112.43 55.6063C112.557 55.7229 112.657 55.8714 112.72 56.039L112.73 56.0639H112.726L114.311 60.5153C114.318 60.5355 114.334 60.5481 114.342 60.5675L116.076 65.4271C121.614 80.9138 124.45 97.382 124.439 113.993C124.443 115.587 124.155 117.167 123.592 118.64C123.028 120.113 122.2 121.45 121.157 122.573Z" fill="#FFFEFE"/>
</svg>
