<svg width="119" height="136" viewBox="0 0 119 136" fill="none" xmlns="http://www.w3.org/2000/svg">
<path d="M27.8906 50.9439C32.822 50.9439 37.5514 48.7051 41.0384 44.7199C44.5254 40.7348 46.4844 35.3298 46.4844 29.6939C45.505 1.50619 10.2725 1.51422 9.29688 29.6941C9.29691 35.3299 11.2559 40.7349 14.7429 44.72C18.2299 48.7051 22.9593 50.9439 27.8906 50.9439ZM14.875 99.8189V121.069C14.875 122.76 15.4627 124.381 16.5088 125.577C17.5549 126.772 18.9737 127.444 20.4531 127.444H35.3281C36.8075 127.444 38.2264 126.772 39.2725 125.577C40.3186 124.381 40.9062 122.76 40.9062 121.069V80.6939L52.6825 91.0465C54.2071 92.3652 56.1062 92.9891 58.0108 92.797C59.9154 92.6048 61.6894 91.6103 62.9883 90.0068C64.2872 88.4032 65.018 86.3051 65.0389 84.1201C65.0598 81.935 64.3692 79.8192 63.1013 78.1836L49.4517 60.8508C49.103 60.408 48.6767 60.0539 48.2005 59.8116C47.7243 59.5692 47.2088 59.444 46.6875 59.444H9.29688C7.81746 59.444 6.39865 60.1157 5.35255 61.3112C4.30644 62.5068 3.71875 64.1283 3.71875 65.819V93.444C3.71875 95.1348 4.30644 96.7563 5.35255 97.9518C6.39865 99.1474 7.81746 99.819 9.29688 99.819L14.875 99.8189ZM91.1094 50.9439C96.0407 50.9439 100.77 48.7051 104.257 44.7199C107.744 40.7348 109.703 35.3298 109.703 29.6939C108.724 1.50619 73.4912 1.51422 72.5156 29.6941C72.5157 35.3299 74.4747 40.7349 77.9617 44.72C81.4487 48.7051 86.178 50.9439 91.1094 50.9439ZM109.703 59.4439H72.3111C71.7892 59.4432 71.2729 59.5677 70.7957 59.8093C70.3185 60.0509 69.8909 60.4042 69.5406 60.8464L61.9916 70.4302L65.8591 75.3389C67.3934 77.2949 68.3772 79.7334 68.6822 82.3371C68.9873 84.9408 68.5997 87.5892 67.5697 89.9377L78.0938 80.6939V121.069C78.0928 121.906 78.2364 122.736 78.5164 123.51C78.7963 124.284 79.2072 124.987 79.7254 125.579C80.2435 126.171 80.8588 126.641 81.5361 126.961C82.2133 127.281 82.9391 127.445 83.6719 127.444H98.5469C99.2797 127.445 100.005 127.281 100.683 126.961C101.36 126.641 101.975 126.171 102.493 125.579C103.012 124.987 103.422 124.284 103.702 123.51C103.982 122.736 104.126 121.906 104.125 121.069V99.8189H109.703C110.436 99.82 111.162 99.6559 111.839 99.3359C112.516 99.0159 113.131 98.5464 113.65 97.9542C114.168 97.362 114.579 96.6588 114.859 95.8848C115.139 95.1109 115.282 94.2814 115.281 93.4439V65.8189C115.282 64.9814 115.139 64.1519 114.859 63.378C114.579 62.604 114.168 61.9008 113.65 61.3086C113.131 60.7164 112.516 60.2469 111.839 59.9269C111.162 59.6069 110.436 59.4428 109.703 59.4439Z" fill="white"/>
</svg>
