<svg width="120" height="125" viewBox="0 0 120 125" fill="none" xmlns="http://www.w3.org/2000/svg">
<g clip-path="url(#clip0_28_1093)">
<path d="M95.6734 36.7784C92.6303 39.941 87.7063 39.941 84.6628 36.7784C81.6264 33.6155 81.6264 28.4788 84.6628 25.3084L106.678 2.37604C109.721 -0.786804 114.645 -0.786804 117.689 2.37604C120.725 5.53888 120.725 10.6756 117.689 13.8458L95.6734 36.7784ZM59.9697 124.933L30.0018 93.7166H7.52572C3.38455 93.7166 0.0336914 90.2256 0.0336914 85.9122V39.0875C0.0336914 34.774 3.38455 31.2833 7.52572 31.2833H30.0016L59.9697 0.0664673C59.9697 0.0664673 67.4617 -0.909119 67.4617 7.87067V117.129C67.4617 125.909 59.9697 124.933 59.9697 124.933ZM52.4777 31.2833L37.4936 46.8917H15.0178V78.1085H37.4934L52.4774 93.7171L52.4777 31.2833ZM89.9376 70.304C85.7964 70.304 82.4456 66.8135 82.4456 62.4998C82.4456 58.1863 85.7964 54.6956 89.9376 54.6956H112.413C116.555 54.6956 119.905 58.1863 119.905 62.4998C119.905 66.8135 116.555 70.304 112.413 70.304H89.9376ZM95.6734 88.2215L117.689 111.154C120.725 114.324 120.725 119.461 117.689 122.624C114.645 125.786 109.721 125.786 106.678 122.624L84.6628 99.6912C81.6264 96.5208 81.6264 91.3843 84.6628 88.2215C87.7063 85.0587 92.6303 85.0587 95.6734 88.2215Z" fill="white"/>
</g>
<defs>
<clipPath id="clip0_28_1093">
<rect width="120" height="125" fill="white"/>
</clipPath>
</defs>
</svg>
