<svg width="154" height="157" viewBox="0 0 154 157" fill="none" xmlns="http://www.w3.org/2000/svg">
<path d="M137.156 93.0112V75.9487C137.156 73.3629 136.142 70.8829 134.337 69.0544C132.532 67.226 130.084 66.1987 127.531 66.1987H26.4688C23.916 66.1987 21.4679 67.226 19.6628 69.0544C17.8578 70.8829 16.8438 73.3629 16.8438 75.9487V90.5737" fill="white"/>
<path d="M49.0322 44.2611C50.6267 37.9748 54.24 32.4042 59.3031 28.4265C64.3662 24.4488 70.5915 22.29 76.9989 22.29C83.4062 22.29 89.6315 24.4488 94.6947 28.4265C99.7578 32.4042 103.371 37.9748 104.966 44.2611M58.3877 46.5792C59.474 42.4104 61.8935 38.7239 65.2679 36.0962C68.6423 33.4684 72.7813 32.0476 77.0376 32.056C81.2938 32.0643 85.4273 33.5014 88.7916 36.1423C92.156 38.7833 94.5614 42.4793 95.6317 46.6523M67.6831 49.1166C68.2169 47.0306 69.4179 45.1825 71.0984 43.8612C72.7789 42.5398 74.8442 41.8197 76.9715 41.8133C79.0988 41.8069 81.1683 42.5146 82.8565 43.8258C84.5447 45.137 85.7566 46.9778 86.3026 49.0606" stroke="white" stroke-width="2" stroke-linejoin="round"/>
<path d="M120.312 134.449H127.531C130.084 134.449 132.532 133.422 134.337 131.593C136.142 129.765 137.156 127.285 137.156 124.699V90.5737C137.156 87.9879 136.142 85.5079 134.337 83.6794C132.532 81.851 130.084 80.8237 127.531 80.8237H26.4688C23.916 80.8237 21.4679 81.851 19.6628 83.6794C17.8578 85.5079 16.8438 87.9879 16.8438 90.5737V124.699C16.8438 127.285 17.8578 129.765 19.6628 131.593C21.4679 133.422 23.916 134.449 26.4688 134.449H57.2134C58.6554 134.448 60.0581 133.973 61.2095 133.093C62.3608 132.213 63.1981 130.978 63.5948 129.574C63.9907 128.169 64.8274 126.934 65.9784 126.054C67.1294 125.175 68.5319 124.699 69.9738 124.699H84.0262C85.468 124.699 86.8706 125.175 88.0216 126.054C89.1726 126.934 90.0093 128.169 90.4052 129.574C90.8019 130.978 91.6392 132.213 92.7906 133.093C93.9419 133.973 95.3446 134.448 96.7866 134.449H120.312ZM9.625 90.5737H16.8438V114.949H9.625C8.98682 114.949 8.37478 114.692 7.92352 114.235C7.47226 113.778 7.21875 113.158 7.21875 112.511V93.0112C7.21875 92.3648 7.47226 91.7448 7.92352 91.2877C8.37478 90.8305 8.98682 90.5737 9.625 90.5737ZM137.156 90.5737H144.375C145.013 90.5737 145.625 90.8305 146.076 91.2877C146.528 91.7448 146.781 92.3648 146.781 93.0112V112.511C146.781 113.158 146.528 113.778 146.076 114.235C145.625 114.692 145.013 114.949 144.375 114.949H137.156V90.5737Z" fill="white"/>
<path d="M98.6562 73.5112H108.281" stroke="white" stroke-width="2" stroke-linejoin="round"/>
<path d="M113.094 73.5112H117.906" stroke="white" stroke-width="2" stroke-linejoin="round"/>
<path d="M64.9688 56.4487H89.0312C89.6694 56.4487 90.2815 56.7055 90.7327 57.1627C91.184 57.6198 91.4375 58.2398 91.4375 58.8862V66.1987H62.5625V58.8862C62.5625 58.2398 62.816 57.6198 63.2673 57.1627C63.7185 56.7055 64.3306 56.4487 64.9688 56.4487Z" fill="white"/>
<path d="M115.5 112.511H38.5C37.2236 112.511 35.9996 111.998 35.097 111.083C34.1945 110.169 33.6875 108.929 33.6875 107.636C33.6875 106.343 34.1945 105.103 35.097 104.189C35.9996 103.275 37.2236 102.761 38.5 102.761H115.5C116.776 102.761 118 103.275 118.903 104.189C119.805 105.103 120.312 106.343 120.312 107.636C120.312 108.929 119.805 110.169 118.903 111.083C118 111.998 116.776 112.511 115.5 112.511Z" fill="white"/>
<path d="M24.0625 90.5737H28.875" stroke="white" stroke-width="2" stroke-linejoin="round"/>
<path d="M125.125 90.5737H129.938" stroke="white" stroke-width="2" stroke-linejoin="round"/>
<path d="M125.125 124.699H129.938" stroke="white" stroke-width="2" stroke-linejoin="round"/>
<path d="M24.0625 124.699H28.875" stroke="white" stroke-width="2" stroke-linejoin="round"/>
<path d="M16.8438 90.5737H14.4375V114.949H16.8438V90.5737Z" fill="white"/>
<path d="M139.562 90.5737H137.156V114.949H139.562V90.5737Z" fill="white"/>
<path d="M91.4375 63.7612H62.5625V66.1987H91.4375V63.7612Z" fill="white"/>
<path d="M107.297 43.657C105.571 36.8457 101.657 30.8098 96.1712 26.4998C90.6858 22.1898 83.941 19.8506 76.999 19.8506C70.0569 19.8506 63.3121 22.1898 57.8268 26.4998C52.3415 30.8098 48.4273 36.8457 46.7007 43.657L51.364 44.8757C52.8255 39.1131 56.1377 34.0066 60.7789 30.3604C65.4201 26.7141 71.1267 24.7351 77.0002 24.7351C82.8736 24.7351 88.5803 26.7141 93.2215 30.3604C97.8627 34.0066 101.175 39.1131 102.636 44.8757L107.297 43.657Z" fill="white"/>
<path d="M93.3022 47.2669L97.9606 46.0481C96.7549 41.3554 94.0483 37.1996 90.2639 34.2303C86.4795 31.261 81.8305 29.6455 77.0437 29.6363C72.2568 29.6271 67.6018 31.2247 63.8063 34.1795C60.0108 37.1343 57.2887 41.2797 56.0654 45.9677L60.7191 47.2133C61.67 43.5659 63.7873 40.3406 66.74 38.0417C69.6926 35.7428 73.3141 34.5 77.0381 34.5075C80.7621 34.515 84.3787 35.7725 87.3223 38.0833C90.2658 40.3941 92.3704 43.6279 93.307 47.2791L93.3022 47.2669Z" fill="white"/>
<path d="M65.3562 48.5027L70.0123 49.7215C70.4155 48.1607 71.317 46.7788 72.5763 45.791C73.8356 44.8033 75.382 44.2652 76.9746 44.2604C78.5673 44.2557 80.1168 44.7846 81.3818 45.7649C82.6468 46.7451 83.5562 48.1217 83.9685 49.68L88.6198 48.4271C87.9362 45.8252 86.4213 43.5259 84.3117 41.8881C82.202 40.2503 79.6163 39.3663 76.9584 39.3741C74.3004 39.3819 71.7199 40.281 69.6196 41.9312C67.5193 43.5813 66.0176 45.8895 65.3489 48.4954L65.3562 48.5027ZM144.375 88.1365H139.562V75.949C139.559 72.7178 138.29 69.6201 136.034 67.3354C133.779 65.0506 130.721 63.7653 127.531 63.7615H93.8438V58.8865C93.8438 57.5935 93.3367 56.3535 92.4342 55.4393C91.5317 54.5251 90.3076 54.0115 89.0312 54.0115H64.9688C63.6924 54.0115 62.4683 54.5251 61.5658 55.4393C60.6633 56.3535 60.1562 57.5935 60.1562 58.8865V63.7615H45.7765V68.6365H127.531C129.446 68.6365 131.282 69.4069 132.636 70.7782C133.989 72.1496 134.75 74.0096 134.75 75.949V80.8873C132.68 79.2742 130.143 78.3954 127.531 78.3865H26.4688C23.8568 78.3954 21.3203 79.2742 19.25 80.8873V75.949C19.25 74.0096 20.0105 72.1496 21.3643 70.7782C22.7181 69.4069 24.5542 68.6365 26.4688 68.6365H41.0602V63.7615H26.4688C23.279 63.7653 20.2211 65.0506 17.9656 67.3354C15.7101 69.6201 14.4413 72.7178 14.4375 75.949V88.1365H9.625C8.34865 88.1365 7.12457 88.6501 6.22205 89.5643C5.31953 90.4785 4.8125 91.7185 4.8125 93.0115V112.511C4.8125 113.804 5.31953 115.044 6.22205 115.959C7.12457 116.873 8.34865 117.386 9.625 117.386H14.4375V124.699C14.4413 127.93 15.7101 131.028 17.9656 133.313C20.2211 135.597 23.279 136.883 26.4688 136.886H57.2134C59.177 136.88 61.0856 136.229 62.6531 135.031C64.2205 133.833 65.3623 132.153 65.9072 130.242C66.1622 129.348 66.6964 128.563 67.4297 128.003C68.1629 127.443 69.0555 127.139 69.9737 127.136H84.0262C84.9447 127.139 85.8374 127.444 86.5706 128.004C87.3037 128.565 87.8378 129.35 88.0928 130.244C88.6381 132.155 89.7801 133.835 91.3475 135.032C92.9149 136.23 94.8233 136.88 96.7866 136.886H115.5V132.011H96.7866C95.8685 132.009 94.976 131.705 94.2429 131.145C93.5097 130.585 92.9754 129.799 92.72 128.906C92.1752 126.995 91.0334 125.315 89.4659 124.117C87.8984 122.919 85.9898 122.268 84.0262 122.261H69.9737C68.0105 122.268 66.1021 122.918 64.5347 124.116C62.9673 125.313 61.8253 126.993 61.28 128.904C61.025 129.797 60.4909 130.583 59.7577 131.144C59.0245 131.704 58.1318 132.008 57.2134 132.011H26.4688C24.5542 132.011 22.7181 131.241 21.3643 129.87C20.0105 128.498 19.25 126.638 19.25 124.699V90.574C19.25 88.6346 20.0105 86.7746 21.3643 85.4032C22.7181 84.0319 24.5542 83.2615 26.4688 83.2615H127.531C129.446 83.2615 131.282 84.0319 132.636 85.4032C133.989 86.7746 134.75 88.6346 134.75 90.574V124.699C134.75 126.638 133.989 128.498 132.636 129.87C131.282 131.241 129.446 132.011 127.531 132.011H120.312V136.886H127.531C130.721 136.883 133.779 135.597 136.034 133.313C138.29 131.028 139.559 127.93 139.562 124.699V117.386H144.375C145.651 117.386 146.875 116.873 147.778 115.959C148.68 115.044 149.188 113.804 149.188 112.511V93.0115C149.188 91.7185 148.68 90.4785 147.778 89.5643C146.875 88.6501 145.651 88.1365 144.375 88.1365ZM64.9688 63.7615V58.8865H89.0312V63.7615H64.9688ZM9.625 112.511V93.0115H14.4375V112.511H9.625ZM139.562 112.511V93.0115H144.375V112.511H139.562Z" fill="black"/>
<path d="M108.281 71.0737H98.6562V75.9487H108.281V71.0737Z" fill="black"/>
<path d="M117.906 71.0737H113.094V75.9487H117.906V71.0737Z" fill="black"/>
<path d="M122.719 107.636C122.719 105.697 121.958 103.837 120.604 102.466C119.251 101.094 117.415 100.324 115.5 100.324H38.5C36.5855 100.324 34.7494 101.094 33.3956 102.466C32.0418 103.837 31.2812 105.697 31.2812 107.636C31.2812 109.576 32.0418 111.436 33.3956 112.807C34.7494 114.178 36.5855 114.949 38.5 114.949H115.5C117.415 114.949 119.251 114.178 120.604 112.807C121.958 111.436 122.719 109.576 122.719 107.636ZM115.5 110.074H38.5C37.8618 110.074 37.2498 109.817 36.7985 109.36C36.3473 108.903 36.0938 108.283 36.0938 107.636C36.0938 106.99 36.3473 106.37 36.7985 105.913C37.2498 105.456 37.8618 105.199 38.5 105.199H115.5C116.138 105.199 116.75 105.456 117.201 105.913C117.653 106.37 117.906 106.99 117.906 107.636C117.906 108.283 117.653 108.903 117.201 109.36C116.75 109.817 116.138 110.074 115.5 110.074Z" fill="black"/>
<path d="M28.875 88.1362H24.0625V93.0112H28.875V88.1362Z" fill="black"/>
<path d="M129.938 88.1362H125.125V93.0112H129.938V88.1362Z" fill="black"/>
<path d="M129.938 122.261H125.125V127.136H129.938V122.261Z" fill="black"/>
<path d="M28.875 122.261H24.0625V127.136H28.875V122.261Z" fill="black"/>
</svg>
