<svg width="146" height="142" viewBox="0 0 146 142" fill="none" xmlns="http://www.w3.org/2000/svg">
<path d="M73 8.875C60.3667 8.875 48.0172 12.5186 37.513 19.345C27.0088 26.1713 18.8218 35.8739 13.9872 47.2258C9.15268 58.5777 7.88774 71.0689 10.3524 83.12C12.817 95.1711 18.9005 106.241 27.8336 114.929C36.7667 123.617 48.1481 129.534 60.5386 131.931C72.9292 134.328 85.7723 133.098 97.4439 128.396C109.116 123.694 119.091 115.731 126.11 105.515C133.129 95.2984 136.875 83.2872 136.875 71C136.857 54.5288 130.121 38.7373 118.146 27.0905C106.172 15.4436 89.9352 8.89262 73 8.875ZM73 124.25C62.1715 124.25 51.5862 121.127 42.5826 115.276C33.579 109.425 26.5615 101.108 22.4176 91.3779C18.2737 81.6477 17.1895 70.9409 19.302 60.6114C21.4146 50.282 26.629 40.7937 34.2859 33.3466C41.9429 25.8994 51.6984 20.8278 62.3188 18.7732C72.9393 16.7185 83.9477 17.773 93.9519 21.8034C103.956 25.8338 112.507 32.659 118.523 41.4159C124.539 50.1728 127.75 60.4681 127.75 71C127.734 85.1181 121.961 98.6536 111.697 108.637C101.433 118.62 87.5158 124.235 73 124.25Z" fill="white"/>
<path d="M84.4062 66.5625H77.5625V53.25H91.25C92.46 53.25 93.6205 52.7825 94.4762 51.9503C95.3318 51.1181 95.8125 49.9894 95.8125 48.8125C95.8125 47.6356 95.3318 46.5069 94.4762 45.6747C93.6205 44.8425 92.46 44.375 91.25 44.375H77.5625V35.5C77.5625 34.3231 77.0818 33.1944 76.2262 32.3622C75.3705 31.53 74.2101 31.0625 73 31.0625C71.7899 31.0625 70.6295 31.53 69.7738 32.3622C68.9182 33.1944 68.4375 34.3231 68.4375 35.5V44.375H61.5938C57.3586 44.375 53.2969 46.0113 50.3021 48.924C47.3074 51.8367 45.625 55.7871 45.625 59.9062C45.625 64.0254 47.3074 67.9758 50.3021 70.8885C53.2969 73.8012 57.3586 75.4375 61.5938 75.4375H68.4375V88.75H54.75C53.5399 88.75 52.3795 89.2175 51.5238 90.0497C50.6682 90.8819 50.1875 92.0106 50.1875 93.1875C50.1875 94.3644 50.6682 95.4931 51.5238 96.3253C52.3795 97.1575 53.5399 97.625 54.75 97.625H68.4375V106.5C68.4375 107.677 68.9182 108.806 69.7738 109.638C70.6295 110.47 71.7899 110.938 73 110.938C74.2101 110.938 75.3705 110.47 76.2262 109.638C77.0818 108.806 77.5625 107.677 77.5625 106.5V97.625H84.4062C88.6414 97.625 92.7031 95.9887 95.6979 93.076C98.6926 90.1633 100.375 86.2129 100.375 82.0938C100.375 77.9746 98.6926 74.0242 95.6979 71.1115C92.7031 68.1988 88.6414 66.5625 84.4062 66.5625ZM68.4375 66.5625H61.5938C59.7787 66.5625 58.0379 65.8612 56.7545 64.6129C55.471 63.3646 54.75 61.6716 54.75 59.9062C54.75 58.1409 55.471 56.4479 56.7545 55.1996C58.0379 53.9513 59.7787 53.25 61.5938 53.25H68.4375V66.5625ZM84.4062 88.75H77.5625V75.4375H84.4062C86.2213 75.4375 87.9621 76.1388 89.2455 77.3871C90.529 78.6354 91.25 80.3284 91.25 82.0938C91.25 83.8591 90.529 85.5521 89.2455 86.8004C87.9621 88.0487 86.2213 88.75 84.4062 88.75Z" fill="white"/>
</svg>
