<svg width="134" height="144" viewBox="0 0 134 144" fill="none" xmlns="http://www.w3.org/2000/svg">
<path d="M124.486 114.758C122.369 105.348 103.019 98.4273 91.4414 95.0811C92.5938 96.8829 93.2102 98.8563 93.2102 100.887C93.2102 109.638 81.9542 116.216 66.9998 116.216C52.0454 116.216 40.7894 109.638 40.7894 100.887C40.7894 98.8563 41.4058 96.8542 42.585 95.1096C42.585 95.1096 42.585 95.0811 42.6118 95.0811C31.0342 98.3987 11.631 105.348 9.51381 114.758L2.97461 139.954H131.025L124.486 114.758Z" fill="white"/>
<path d="M67 93.4794C61.1576 93.4794 55.5564 91.5346 50.7592 88.0454C49.9016 91.2769 48.2936 94.2802 46.2568 96.9686C46.1496 97.1116 46.0424 97.2545 45.9888 97.3975C45.2116 98.4844 44.8096 99.657 44.8096 100.887C44.8096 106.979 54.7524 111.926 67 111.926C79.2476 111.926 89.1904 106.979 89.1904 100.887C89.1904 99.514 88.6812 98.1984 87.7432 96.9686C85.7066 94.2802 84.0984 91.2772 83.2408 88.0454C78.4168 91.506 72.8156 93.4794 67 93.4794ZM88.2256 10.997C82.5708 6.53536 75.1472 3.81836 67 3.81836C58.5312 3.81836 51.2416 6.59256 45.7744 10.997C51.8312 10.5394 59.9784 10.3678 67 10.3678C74.0216 10.3678 82.1688 10.5394 88.2256 10.997Z" fill="white"/>
<path d="M99.0526 56.9C95.7026 59.8744 91.8434 60.5322 89.1098 60.5322C81.9135 60.5322 76.1258 57.0287 71.4486 50.9512C69.5737 50.2846 65.2171 50.0243 62.5242 50.9512C57.9318 56.9183 52.244 60.5322 44.863 60.5322C42.1565 60.5322 38.3238 59.8744 34.947 56.9289C33.9018 63.7357 36.689 72.3157 42.4242 70.5139C46.7926 81.5535 56.1458 89.1897 66.9998 89.1897C77.8538 89.1897 87.1802 81.5535 91.5754 70.5139C97.1498 72.2868 100.098 63.6782 99.0526 56.9ZM71.4406 31.428C73.442 32.5829 75.4625 30.4267 74.3803 28.2909C74.2337 28.002 73.9904 27.7423 73.7197 27.5859C71.7185 26.4307 69.6978 28.5872 70.7803 30.7227C70.9266 31.0119 71.1699 31.2716 71.4406 31.428ZM79.1933 31.3871C81.1947 32.5423 83.2152 30.3858 82.1327 28.2503C81.9864 27.9611 81.7431 27.7014 81.4721 27.5453C79.471 26.3904 77.4502 28.5466 78.5327 30.6824C78.6793 30.9713 78.9226 31.231 79.1933 31.3871ZM86.946 31.3871C88.9474 32.5423 90.9679 30.3858 89.8854 28.2503C89.7391 27.9611 89.4958 27.7014 89.2248 27.5453C87.2234 26.3904 85.2029 28.5466 86.2854 30.6824C86.4317 30.9713 86.6753 31.231 86.946 31.3871Z" fill="white"/>
<path d="M50.8189 55.1443C54.3849 53.9085 57.3764 50.997 59.7206 47.8702C61.4808 45.5198 72.469 45.4729 74.2644 47.8702C76.6075 50.9959 79.5997 53.9085 83.166 55.1443C90.4202 57.6688 99.287 56.7336 101.699 42.391C103.667 30.685 100.952 23.193 99.0823 19.6835C98.0893 17.8136 96.3953 16.5109 94.4271 16.0621C86.1505 14.2046 47.8342 14.2046 39.5576 16.0621C37.5894 16.5109 35.8954 17.8136 34.9024 19.6835C33.0334 23.193 30.3172 30.685 32.2857 42.391C34.6979 56.7336 43.5644 57.6688 50.8189 55.1443ZM41.7088 23.1772C42.3525 20.5283 45.0985 23.932 90.9495 22.1313C91.5812 22.1082 92.1255 22.5497 92.278 23.1772C93.6121 29.3777 93.5947 35.6019 92.278 41.7469C92.1255 42.3976 91.5812 42.8394 90.9495 42.816C74.9861 42.1653 59.001 42.1653 43.0153 42.816C42.4056 42.8392 41.861 42.3976 41.7088 41.7469C40.3806 35.5647 40.3806 29.3829 41.7088 23.1772Z" fill="white"/>
</svg>
