<svg width="168" height="165" viewBox="0 0 168 165" fill="none" xmlns="http://www.w3.org/2000/svg">
<path d="M154.879 43.0946C154.879 42.8547 154.815 42.6191 154.692 42.4113C154.569 42.2035 154.392 42.031 154.179 41.9111L85.5794 3.24807C85.5598 3.23714 85.5374 3.24261 85.515 3.23167C85.3218 3.13327 85.1118 3.06494 84.8794 3.06494C84.647 3.06494 84.437 3.13327 84.2438 3.23167C84.2242 3.24261 84.199 3.23714 84.1794 3.24807L15.5794 41.9111C15.3666 42.031 15.1898 42.2035 15.067 42.4113C14.9441 42.6191 14.8794 42.8547 14.8794 43.0946V120.483C14.8794 120.992 15.1594 121.462 15.6074 121.716L84.1486 160.349C84.3695 160.475 84.6207 160.542 84.8766 160.542C85.1325 160.542 85.3837 160.475 85.6046 160.349L154.146 121.716C154.367 121.591 154.551 121.412 154.679 121.195C154.807 120.979 154.874 120.733 154.874 120.483V120.423V43.0946H154.879ZM17.7942 44.0513L83.4206 7.06107V24.5325H83.4794H83.3086C83.2498 24.5325 83.1966 24.5462 83.1378 24.5462C82.6898 24.5544 82.2474 24.5872 81.819 24.661H81.8162C81.6538 24.6883 81.4998 24.7457 81.3402 24.7813L81.287 24.7949C80.9902 24.866 80.6878 24.9289 80.4022 25.0273H80.3994C80.2146 25.0929 80.0466 25.1831 79.8674 25.2596L79.8534 25.2651C79.593 25.3771 79.327 25.481 79.0806 25.6149C78.9014 25.7133 78.739 25.8336 78.5682 25.9429L78.5626 25.9484C78.333 26.096 78.1006 26.2354 77.885 26.4021C77.7198 26.5306 77.5742 26.6809 77.4174 26.8203C77.1042 27.1029 76.8122 27.407 76.5438 27.7305L76.4374 27.8617V27.8645C76.2325 28.1188 76.0427 28.3843 75.869 28.6599L75.6478 29.048L75.645 29.0562C75.519 29.2831 75.393 29.5072 75.2866 29.7477C75.1998 29.9473 75.1382 30.1523 75.0654 30.36C75.001 30.5486 74.917 30.7263 74.8638 30.9176C74.6505 31.0271 74.4551 31.1672 74.2842 31.3331C74.2478 31.3686 74.2198 31.4123 74.1862 31.4506C74.0307 31.6175 73.9006 31.8052 73.7998 32.0082C73.7662 32.0765 73.7326 32.1421 73.7046 32.2132C73.5964 32.4778 73.5386 32.7593 73.5338 33.0441V38.1555C73.5338 38.5299 73.6402 38.8743 73.797 39.1887C73.8446 39.2871 73.9174 39.3609 73.979 39.4511C74.1112 39.6514 74.2735 39.8311 74.4606 39.9841C74.5082 40.0223 74.5306 40.0825 74.581 40.1153V40.8615C74.581 43.3652 75.8522 45.6257 77.955 47.0251V51.5652L70.8822 54.6812V46.4347L72.9234 45.284C73.0839 45.1949 73.2248 45.0757 73.3379 44.9333C73.451 44.7908 73.5342 44.628 73.5825 44.454C73.6309 44.2801 73.6436 44.0985 73.6198 43.9198C73.596 43.7411 73.5362 43.5687 73.4439 43.4126C73.3515 43.2565 73.2285 43.1198 73.0818 43.0103C72.9352 42.9008 72.7678 42.8207 72.5893 42.7747C72.4108 42.7286 72.2247 42.7175 72.0418 42.7419C71.8589 42.7663 71.6827 42.8258 71.5234 42.9169L70.8822 43.2777V31.8497L72.9206 30.7017C73.2395 30.5192 73.4716 30.2209 73.566 29.872C73.6605 29.5231 73.6098 29.1519 73.425 28.8393C73.2401 28.5268 72.9361 28.2983 72.5794 28.2038C72.2226 28.1092 71.842 28.1562 71.5206 28.3346L70.8822 28.6927V21.6243C70.8822 21.2618 70.7347 20.9142 70.4721 20.6579C70.2096 20.4016 69.8535 20.2576 69.4822 20.2576C69.1109 20.2576 68.7548 20.4016 68.4922 20.6579C68.2297 20.9142 68.0822 21.2618 68.0822 21.6243V30.2889L58.7498 35.5479V28.1323C58.7498 27.7699 58.6023 27.4223 58.3397 27.166C58.0772 26.9097 57.7211 26.7657 57.3498 26.7657C56.9785 26.7657 56.6224 26.9097 56.3598 27.166C56.0973 27.4223 55.9498 27.7699 55.9498 28.1323V37.1277L46.6146 42.3894V35.2909C46.6146 34.9285 46.4671 34.5809 46.2045 34.3246C45.942 34.0683 45.5859 33.9243 45.2146 33.9243C44.8433 33.9243 44.4872 34.0683 44.2246 34.3246C43.9621 34.5809 43.8146 34.9285 43.8146 35.2909V43.9665L34.4822 49.2255V41.1485C34.4822 40.786 34.3347 40.4384 34.0721 40.1821C33.8096 39.9258 33.4535 39.7818 33.0822 39.7818C32.7109 39.7818 32.3548 39.9258 32.0922 40.1821C31.8297 40.4384 31.6822 40.786 31.6822 41.1485V50.8053L22.5822 55.9331C22.4217 56.0222 22.2808 56.1414 22.1677 56.2838C22.0546 56.4262 21.9714 56.5891 21.9231 56.7631C21.8747 56.937 21.862 57.1186 21.8858 57.2973C21.9096 57.476 21.9694 57.6484 22.0617 57.8045C22.154 57.9606 22.2771 58.0973 22.4237 58.2068C22.5704 58.3163 22.7378 58.3963 22.9163 58.4424C23.0948 58.4885 23.2809 58.4996 23.4638 58.4752C23.6467 58.4508 23.8229 58.3913 23.9822 58.3001L31.6822 53.9596V65.385L22.5822 70.5127C22.4217 70.6018 22.2808 70.721 22.1677 70.8634C22.0546 71.0058 21.9714 71.1687 21.9231 71.3427C21.8747 71.5166 21.862 71.6982 21.8858 71.8769C21.9096 72.0556 21.9694 72.228 22.0617 72.3841C22.154 72.5402 22.2771 72.6769 22.4237 72.7864C22.5704 72.8959 22.7378 72.9759 22.9163 73.022C23.0948 73.0681 23.2809 73.0792 23.4638 73.0548C23.6467 73.0304 23.8229 72.9709 23.9822 72.8797L31.6822 68.5392V79.9618L22.5822 85.0896C22.4217 85.1786 22.2808 85.2978 22.1677 85.4403C22.0546 85.5827 21.9714 85.7456 21.9231 85.9195C21.8747 86.0935 21.862 86.275 21.8858 86.4538C21.9096 86.6325 21.9694 86.8049 22.0617 86.961C22.154 87.1171 22.2771 87.2538 22.4237 87.3633C22.5704 87.4727 22.7378 87.5528 22.9163 87.5989C23.0948 87.645 23.2809 87.6561 23.4638 87.6317C23.6467 87.6073 23.8229 87.5478 23.9822 87.4566L31.6822 83.1161V94.5387L22.5822 99.6664C22.4217 99.7555 22.2808 99.8747 22.1677 100.017C22.0546 100.16 21.9714 100.322 21.9231 100.496C21.8747 100.67 21.862 100.852 21.8858 101.031C21.9096 101.209 21.9694 101.382 22.0617 101.538C22.154 101.694 22.2771 101.831 22.4237 101.94C22.5704 102.05 22.7378 102.13 22.9163 102.176C23.0948 102.222 23.2809 102.233 23.4638 102.209C23.6467 102.184 23.8229 102.125 23.9822 102.033L31.6822 97.6929V103.627C31.6822 103.989 31.8297 104.337 32.0922 104.593C32.3548 104.85 32.7109 104.994 33.0822 104.994C33.4535 104.994 33.8096 104.85 34.0721 104.593C34.3347 104.337 34.4822 103.989 34.4822 103.627V96.1158L43.8146 90.8569V97.7722C43.8146 98.1347 43.9621 98.4823 44.2246 98.7386C44.4872 98.9949 44.8433 99.1389 45.2146 99.1389C45.5859 99.1389 45.942 98.9949 46.2045 98.7386C46.4671 98.4823 46.6146 98.1347 46.6146 97.7722V89.2797L55.9498 84.0181V90.6136C55.9498 90.9761 56.0973 91.3237 56.3598 91.58C56.6224 91.8363 56.9785 91.9803 57.3498 91.9803C57.7211 91.9803 58.0772 91.8363 58.3397 91.58C58.6023 91.3237 58.7498 90.9761 58.7498 90.6136V82.441L62.7286 80.1996V80.2024C63.0562 81.3148 63.7142 82.2797 64.6018 83.004C64.6886 83.0751 64.7726 83.1489 64.865 83.2145C65.2863 83.5097 65.7421 83.7547 66.223 83.9443C66.4302 84.0235 66.6486 84.0837 66.867 84.1411C66.9846 84.1712 67.0994 84.2067 67.2198 84.2313C67.5698 84.2969 67.931 84.3379 68.3006 84.3379H70.8794V88.0771L17.7942 117.991V44.0513V44.0513ZM86.3354 24.5325V7.06107L151.962 44.0513V117.991L147.087 115.244L98.8794 88.0716V84.3324H101.458C101.842 84.3324 102.211 84.2914 102.573 84.2231C102.701 84.1985 102.822 84.1548 102.948 84.122C103.172 84.0646 103.393 84.0044 103.606 83.9224C103.76 83.8623 103.903 83.7858 104.048 83.7147C104.213 83.6327 104.379 83.5534 104.535 83.455C104.695 83.3566 104.843 83.2473 104.995 83.1325C105.115 83.0396 105.235 82.9466 105.35 82.8455C105.772 82.4672 106.136 82.0329 106.434 81.5553C106.481 81.4761 106.523 81.3941 106.568 81.3121C106.694 81.0869 106.804 80.8541 106.899 80.6151C106.921 80.5577 106.935 80.4976 106.955 80.4402C107.05 80.1668 107.131 79.8907 107.181 79.5983L111.012 81.7576V90.6136C111.012 90.9761 111.159 91.3237 111.422 91.58C111.684 91.8363 112.04 91.9803 112.412 91.9803C112.783 91.9803 113.139 91.8363 113.402 91.58C113.664 91.3237 113.812 90.9761 113.812 90.6136V83.3375L123.147 88.5991V97.775C123.147 98.1374 123.294 98.485 123.557 98.7413C123.82 98.9976 124.176 99.1416 124.547 99.1416C124.918 99.1416 125.274 98.9976 125.537 98.7413C125.799 98.485 125.947 98.1374 125.947 97.775V90.179L135.279 95.438V103.632C135.279 103.995 135.427 104.343 135.689 104.599C135.952 104.855 136.308 104.999 136.679 104.999C137.051 104.999 137.407 104.855 137.669 104.599C137.932 104.343 138.079 103.995 138.079 103.632V97.0096L145.779 101.35C146.101 101.529 146.481 101.576 146.838 101.481C147.195 101.386 147.499 101.158 147.684 100.845C147.869 100.533 147.919 100.162 147.825 99.8128C147.73 99.4639 147.498 99.1656 147.179 98.9831L138.079 93.8553V82.4328L145.779 86.7733C146.101 86.9517 146.481 86.9987 146.838 86.9041C147.195 86.8096 147.499 86.5811 147.684 86.2686C147.869 85.956 147.919 85.5848 147.825 85.2359C147.73 84.887 147.498 84.5887 147.179 84.4062L138.079 79.2785V67.8559L145.779 72.1964C146.101 72.3748 146.481 72.4218 146.838 72.3273C147.195 72.2327 147.499 72.0042 147.684 71.6917C147.869 71.3792 147.919 71.0079 147.825 70.659C147.73 70.3101 147.498 70.0119 147.179 69.8293L138.079 64.7016V53.2763L145.779 57.6168C146.101 57.7952 146.481 57.8422 146.838 57.7477C147.195 57.6531 147.499 57.4246 147.684 57.1121C147.869 56.7996 147.919 56.4283 147.825 56.0794C147.73 55.7305 147.498 55.4323 147.179 55.2497L138.079 50.122V41.1485C138.079 40.786 137.932 40.4384 137.669 40.1821C137.407 39.9258 137.051 39.7818 136.679 39.7818C136.308 39.7818 135.952 39.9258 135.689 40.1821C135.427 40.4384 135.279 40.786 135.279 41.1485V48.5449L125.947 43.2859V35.2909C125.947 34.9285 125.799 34.5809 125.537 34.3246C125.274 34.0683 124.918 33.9243 124.547 33.9243C124.176 33.9243 123.82 34.0683 123.557 34.3246C123.294 34.5809 123.147 34.9285 123.147 35.2909V41.7061L113.812 36.4444V28.1323C113.812 27.7699 113.664 27.4223 113.402 27.166C113.139 26.9097 112.783 26.7657 112.412 26.7657C112.04 26.7657 111.684 26.9097 111.422 27.166C111.159 27.4223 111.012 27.7699 111.012 28.1323V34.8673L101.679 29.6083V21.6243C101.679 21.2618 101.532 20.9142 101.269 20.6579C101.007 20.4016 100.651 20.2576 100.279 20.2576C99.9081 20.2576 99.552 20.4016 99.2894 20.6579C99.0269 20.9142 98.8794 21.2618 98.8794 21.6243V28.0285L98.4482 27.7852C98.2889 27.6941 98.1127 27.6346 97.9298 27.6101C97.7469 27.5857 97.5608 27.5969 97.3823 27.6429C97.2038 27.689 97.0364 27.7691 96.8897 27.8786C96.7431 27.9881 96.62 28.1248 96.5277 28.2809C96.4354 28.437 96.3756 28.6093 96.3518 28.7881C96.328 28.9668 96.3407 29.1484 96.3891 29.3223C96.4374 29.4962 96.5206 29.6591 96.6337 29.8016C96.7468 29.944 96.8877 30.0632 97.0482 30.1523L98.8794 31.1855V42.6081L98.4482 42.3648C98.2892 42.2744 98.1134 42.2155 97.9309 42.1917C97.7485 42.1679 97.5631 42.1796 97.3853 42.2261C97.2075 42.2726 97.0409 42.353 96.8951 42.4626C96.7493 42.5723 96.6272 42.7091 96.5358 42.865C96.4431 43.0203 96.3829 43.1919 96.3585 43.3699C96.3341 43.548 96.3461 43.7291 96.3937 43.9026C96.4413 44.0762 96.5237 44.2388 96.636 44.3811C96.7483 44.5235 96.8884 44.6427 97.0482 44.7319L98.8794 45.7651V54.6976L91.8066 51.5843V47.047C93.1618 46.1423 94.1222 44.8603 94.6682 43.4062C94.7578 43.1684 94.8866 42.947 94.9482 42.701C95.0098 42.4632 95.0042 42.2035 95.0434 41.9575C95.0966 41.5995 95.1806 41.2496 95.1806 40.8779V40.1317C95.231 40.0989 95.2534 40.0387 95.301 40.0005C95.4888 39.8482 95.6513 39.6684 95.7826 39.4675C95.8442 39.3773 95.9142 39.3035 95.9646 39.2051C96.1319 38.8848 96.222 38.5314 96.2278 38.1719V33.0605C96.2233 32.7766 96.1654 32.4959 96.057 32.2323C96.029 32.1585 95.9954 32.0929 95.9618 32.0219C95.8621 31.8236 95.7349 31.6396 95.5838 31.4752C95.5446 31.4342 95.5166 31.3877 95.4774 31.3495C95.3067 31.1853 95.1124 31.0463 94.9006 30.9367C94.8474 30.7372 94.7606 30.5541 94.6934 30.36C94.6262 30.1632 94.5646 29.9664 94.4834 29.7778L94.475 29.7587C94.377 29.5318 94.2538 29.3186 94.1362 29.0999L94.1054 29.0398C94.0074 28.8649 93.9206 28.6845 93.8086 28.5177L93.7974 28.5013C93.663 28.2936 93.5062 28.105 93.3522 27.9109L93.3074 27.8508C93.1842 27.695 93.0694 27.5365 92.935 27.3889L92.921 27.3752C92.7558 27.1948 92.5682 27.0363 92.3862 26.8723L92.3246 26.8149C92.179 26.6837 92.0418 26.5415 91.885 26.4213L91.871 26.4131C91.6778 26.2627 91.465 26.137 91.2578 26.0003L91.1794 25.9484C91.0142 25.8445 90.8602 25.727 90.6866 25.6313L90.6754 25.6259C90.4542 25.5056 90.219 25.4154 89.9866 25.3143L89.8886 25.2705C89.7122 25.1967 89.547 25.1065 89.365 25.0437L89.3566 25.0409C89.0962 24.9507 88.8218 24.8961 88.5502 24.8277L88.4186 24.7922C88.259 24.7567 88.1078 24.6993 87.9482 24.6719H87.9398C87.5285 24.6074 87.1131 24.5717 86.6966 24.5653C86.6154 24.5626 86.537 24.5435 86.453 24.5435H86.2794H86.3354V24.5325ZM67.8078 120.024L56.3306 126.491L44.8534 120.024L56.3306 113.557L67.8078 120.024ZM59.1278 111.98L70.605 105.51L70.8766 105.663V118.291L70.6022 118.447L59.1278 111.98V111.98ZM70.605 121.601L70.8794 121.757V134.382L70.605 134.538L59.1278 128.071L70.605 121.601V121.601ZM64.7698 58.6418C64.3479 59.1688 63.9793 59.7345 63.6694 60.331L63.605 60.4458C63.2889 61.0675 63.0375 61.7186 62.8546 62.3892V62.3919L58.747 64.7071V53.2845L68.0794 48.0255V55.9686C66.7858 56.6191 65.6686 57.5266 64.781 58.6254L64.7698 58.6418ZM58.747 79.2839V67.8614L62.4794 65.7567V77.1793L58.747 79.2839V79.2839ZM77.9438 30.6661L77.9494 30.6552C78.4142 29.6712 79.1534 28.8403 80.0634 28.2444L80.1222 28.2034C80.5527 27.933 81.0178 27.7189 81.5054 27.5665C81.5922 27.5392 81.679 27.5173 81.7658 27.4955C82.2614 27.3615 82.7738 27.2686 83.3086 27.2686H86.4474C86.985 27.2686 87.5002 27.3588 87.9958 27.4955L88.2478 27.5638C88.7406 27.7223 89.2138 27.9328 89.6422 28.2061L89.6814 28.2335C90.5998 28.8321 91.3446 29.6712 91.8122 30.6634H77.9438V30.6661ZM111.012 52.5984V64.021L106.624 61.5473L106.621 61.5419C105.759 59.1379 103.992 57.1443 101.679 55.9659V47.3367L111.012 52.5984V52.5984ZM101.679 44.1852V32.7626L111.012 38.0215V49.4441L101.679 44.1852ZM107.279 65.1143L107.277 65.0706L111.012 67.1753V78.6006L107.279 76.4959V65.1143V65.1143ZM104.241 79.7951L104.239 79.7978C103.931 80.5003 103.354 81.0661 102.631 81.364C102.486 81.4241 102.312 81.4214 102.158 81.4569C101.929 81.5116 101.707 81.5936 101.461 81.5936H97.5578C97.5298 81.5909 97.5074 81.5772 97.4794 81.5772C97.4514 81.5772 97.429 81.5909 97.401 81.5936H72.3578C72.3298 81.5909 72.3074 81.5772 72.2794 81.5772C72.2514 81.5772 72.229 81.5909 72.201 81.5936H68.3006C67.4995 81.5929 66.7315 81.2819 66.1651 80.729C65.5987 80.1761 65.2801 79.4263 65.2794 78.6444V65.1116C65.2794 62.8566 66.251 60.7683 67.8638 59.3689C68.4014 58.9042 69.0118 58.5134 69.6782 58.2182L79.1926 54.0279C80.8894 55.2552 82.8746 55.9085 84.8766 55.9085C86.8786 55.9085 88.8638 55.2579 90.5606 54.0279L100.075 58.2182C101.838 59.0148 103.212 60.4529 103.903 62.2252C104.264 63.1217 104.474 64.0948 104.474 65.1089V78.6416C104.474 78.7646 104.418 78.8712 104.401 78.9887C104.373 79.2703 104.348 79.5491 104.241 79.7951V79.7951ZM84.8794 116.476L85.7922 125.977L83.863 127.065L84.8794 116.476ZM94.6794 136.249H90.8686C90.5192 136.252 90.1817 136.126 89.9233 135.897C89.6648 135.667 89.5045 135.351 89.4742 135.011L86.2738 101.705C86.2426 101.366 86.0821 101.049 85.8241 100.819C85.566 100.589 85.229 100.461 84.8794 100.461C84.5297 100.461 84.1928 100.589 83.9347 100.819C83.6767 101.049 83.5162 101.366 83.485 101.705L83.4234 102.351L80.2874 135.011C80.2552 135.349 80.0946 135.664 79.8371 135.892C79.5796 136.121 79.2439 136.247 78.8958 136.247H75.0822C74.7111 136.246 74.3555 136.102 74.0931 135.846C73.8307 135.589 73.6829 135.242 73.6822 134.88V95.2494H96.0822V121.063C96.085 121.096 96.0766 121.129 96.0822 121.161V134.88C96.0807 135.243 95.9325 135.59 95.6697 135.847C95.4069 136.103 95.051 136.248 94.6794 136.249V136.249ZM73.6794 92.516V89.7991H96.0794V92.516H73.6794ZM73.6794 87.0493V84.3324H96.0794V87.0493H73.6794ZM87.5198 49.4578C87.9342 49.3266 88.343 49.1708 88.7154 48.9439L89.0066 48.769V51.8057C87.8225 52.6913 86.3724 53.1711 84.8808 53.1711C83.3892 53.1711 81.9391 52.6913 80.755 51.8057V48.7663L81.0462 48.9412C81.2114 49.0396 81.4018 49.0861 81.5754 49.1681C82.3258 49.5207 83.1322 49.7503 83.975 49.7503H85.7894C86.3102 49.7503 86.8226 49.6792 87.3154 49.5425C87.3854 49.5261 87.4498 49.4797 87.5198 49.4578V49.4578ZM90.0566 44.9314L87.7718 46.3035L87.2454 46.6206C86.8065 46.8833 86.3014 47.0215 85.7866 47.0197H83.9722C83.4564 47.0197 82.9506 46.8807 82.5106 46.6179L79.7078 44.9341C78.9949 44.5103 78.4062 43.9139 77.9985 43.2028C77.5909 42.4917 77.3782 41.69 77.381 40.8751V40.5581H83.3114C83.6838 40.5581 84.0394 40.4132 84.3026 40.159L84.4118 40.0524L84.8822 39.5932L85.4618 40.159C85.592 40.2858 85.7466 40.3864 85.9167 40.4548C86.0868 40.5233 86.269 40.5584 86.453 40.5581H92.3834V40.8751C92.3834 41.8127 92.0838 42.6873 91.5854 43.4417C91.1934 44.0267 90.6922 44.5487 90.0566 44.9314V44.9314ZM87.0298 37.822L86.3914 37.1988C86.2611 37.072 86.1066 36.9715 85.9365 36.903C85.7664 36.8345 85.5842 36.7994 85.4002 36.7997H84.353C83.9817 36.8003 83.6255 36.9437 83.3618 37.1988L82.7234 37.822H76.3254V33.3995H93.4194V37.822H87.0298ZM68.0794 44.8685L58.747 50.1275V38.7021L68.0794 33.4432V44.8685V44.8685ZM78.893 138.983C80.5982 138.983 82.0374 137.993 82.6954 136.558C82.8802 136.156 83.0314 135.73 83.0762 135.265L83.5438 130.397L86.0778 128.968L86.5146 133.5L86.6826 135.263C86.8842 137.381 88.6818 138.98 90.863 138.98H91.2662L84.8766 142.58L78.487 138.98H78.893V138.983ZM101.951 120.024L113.428 113.557L124.905 120.024L113.428 126.491L101.951 120.024V120.024ZM110.631 128.068L99.1538 134.536L98.8794 134.38V121.752L99.1538 121.596L110.631 128.068ZM99.1538 118.447L98.8794 118.291V105.666L99.1538 105.51L110.631 111.977L99.1538 118.447V118.447ZM123.147 59.4372V70.8598L113.812 65.5981V54.1755L123.147 59.4372V59.4372ZM113.812 51.0213V39.5987L123.147 44.8603V56.2857L113.812 51.0213ZM123.147 74.0141V85.4394L113.812 80.1777V68.7524L123.147 74.0141ZM135.279 66.276V77.6986L125.947 72.4397V61.0171L135.279 66.276V66.276ZM125.947 57.8628V46.4375L135.279 51.6964V63.1217L125.947 57.8628ZM135.279 80.8529V92.2755L125.947 87.0166V75.5912L135.279 80.8529V80.8529ZM46.6118 71.5459V60.1233L55.947 54.8616V66.2842L46.6118 71.5459V71.5459ZM55.947 69.4385V80.8611L46.6118 86.1228V74.7001L55.947 69.4385V69.4385ZM46.6118 56.969V45.5437L55.947 40.282V51.7073L46.6118 56.969ZM34.4794 78.3819V66.9594L43.8118 61.7004V73.123L34.4794 78.3819ZM43.8118 76.2773V87.6999L34.4794 92.9588V81.5362L43.8118 76.2773V76.2773ZM34.4794 63.8051V52.3797L43.8118 47.1208V58.5461L34.4794 63.8051ZM70.8794 91.3899V102.203L70.605 102.356L65.9794 99.7512C65.8201 99.66 65.6439 99.6005 65.461 99.5761C65.2781 99.5517 65.092 99.5628 64.9135 99.6089C64.735 99.6549 64.5676 99.735 64.4209 99.8445C64.2743 99.954 64.1512 100.091 64.0589 100.247C63.9666 100.403 63.9068 100.575 63.883 100.754C63.8592 100.933 63.8719 101.114 63.9203 101.288C63.9686 101.462 64.0518 101.625 64.1649 101.767C64.278 101.91 64.4189 102.029 64.5794 102.118L67.8078 103.936L56.3306 110.403L51.9794 107.951C51.658 107.773 51.2774 107.726 50.9206 107.82C50.5638 107.915 50.2599 108.143 50.075 108.456C49.8902 108.768 49.8394 109.14 49.9339 109.489C50.0284 109.837 50.2605 110.136 50.5794 110.318L53.5306 111.983L42.0534 118.45L37.9794 116.154C37.658 115.976 37.2774 115.928 36.9206 116.023C36.5638 116.118 36.2599 116.346 36.075 116.659C35.8902 116.971 35.8394 117.342 35.9339 117.691C36.0284 118.04 36.2605 118.338 36.5794 118.521L39.2562 120.03L36.5794 121.539C36.4189 121.628 36.278 121.747 36.1649 121.889C36.0518 122.032 35.9686 122.195 35.9203 122.369C35.8719 122.542 35.8592 122.724 35.883 122.903C35.9068 123.082 35.9666 123.254 36.0589 123.41C36.1512 123.566 36.2743 123.703 36.4209 123.812C36.5676 123.922 36.735 124.002 36.9135 124.048C37.092 124.094 37.2781 124.105 37.461 124.081C37.6439 124.056 37.8201 123.997 37.9794 123.906L42.0534 121.61L53.5306 128.077L50.5794 129.739C50.4189 129.828 50.278 129.947 50.1649 130.089C50.0518 130.232 49.9686 130.395 49.9203 130.569C49.8719 130.742 49.8592 130.924 49.883 131.103C49.9068 131.282 49.9666 131.454 50.0589 131.61C50.1512 131.766 50.2743 131.903 50.4209 132.012C50.5676 132.122 50.735 132.202 50.9135 132.248C51.092 132.294 51.2781 132.305 51.461 132.281C51.6439 132.256 51.8201 132.197 51.9794 132.106L56.3278 129.654L67.805 136.121L64.5794 137.939C64.4189 138.028 64.278 138.147 64.1649 138.289C64.0518 138.432 63.9686 138.595 63.9203 138.769C63.8719 138.942 63.8592 139.124 63.883 139.303C63.9068 139.482 63.9666 139.654 64.0589 139.81C64.1512 139.966 64.2743 140.103 64.4209 140.212C64.5676 140.322 64.735 140.402 64.9135 140.448C65.092 140.494 65.2781 140.505 65.461 140.481C65.6439 140.456 65.8201 140.397 65.9794 140.306L70.605 137.698L82.0822 144.165L78.5794 146.139C78.4189 146.228 78.278 146.347 78.1649 146.489C78.0518 146.632 77.9686 146.795 77.9203 146.969C77.8719 147.142 77.8592 147.324 77.883 147.503C77.9068 147.682 77.9666 147.854 78.0589 148.01C78.1512 148.166 78.2743 148.303 78.4209 148.412C78.5676 148.522 78.735 148.602 78.9135 148.648C79.092 148.694 79.2781 148.705 79.461 148.681C79.6439 148.656 79.8201 148.597 79.9794 148.506L84.8794 145.745L89.7794 148.506C90.1008 148.684 90.4814 148.731 90.8382 148.636C91.1949 148.542 91.4989 148.313 91.6838 148.001C91.8686 147.688 91.9193 147.317 91.8248 146.968C91.7304 146.619 91.4983 146.321 91.1794 146.139L87.6766 144.16L99.1538 137.693L103.779 140.297C104.101 140.476 104.481 140.523 104.838 140.428C105.195 140.334 105.499 140.105 105.684 139.793C105.869 139.48 105.919 139.109 105.825 138.76C105.73 138.411 105.498 138.113 105.179 137.93L101.954 136.113L113.431 129.646L117.779 132.097C118.101 132.276 118.481 132.323 118.838 132.228C119.195 132.134 119.499 131.905 119.684 131.593C119.869 131.28 119.919 130.909 119.825 130.56C119.73 130.211 119.498 129.913 119.179 129.73L116.228 128.066L127.705 121.599L131.779 123.895C132.101 124.073 132.481 124.12 132.838 124.026C133.195 123.931 133.499 123.703 133.684 123.39C133.869 123.077 133.919 122.706 133.825 122.357C133.73 122.008 133.498 121.71 133.179 121.528L130.503 120.019L133.179 118.51C133.34 118.421 133.481 118.302 133.594 118.159C133.707 118.017 133.79 117.854 133.839 117.68C133.887 117.506 133.9 117.325 133.876 117.146C133.852 116.967 133.792 116.795 133.7 116.639C133.608 116.483 133.485 116.346 133.338 116.236C133.191 116.127 133.024 116.047 132.845 116.001C132.667 115.955 132.481 115.943 132.298 115.968C132.115 115.992 131.939 116.052 131.779 116.143L127.705 118.439L116.228 111.972L119.179 110.307C119.34 110.218 119.481 110.099 119.594 109.957C119.707 109.814 119.79 109.651 119.839 109.477C119.887 109.303 119.9 109.122 119.876 108.943C119.852 108.764 119.792 108.592 119.7 108.436C119.608 108.28 119.485 108.143 119.338 108.034C119.191 107.924 119.024 107.844 118.845 107.798C118.667 107.752 118.481 107.741 118.298 107.765C118.115 107.79 117.939 107.849 117.779 107.94L113.428 110.403L101.951 103.936L105.177 102.118C105.337 102.029 105.478 101.91 105.591 101.767C105.704 101.625 105.787 101.462 105.836 101.288C105.884 101.114 105.897 100.933 105.873 100.754C105.849 100.575 105.789 100.403 105.697 100.247C105.605 100.091 105.482 99.954 105.335 99.8445C105.188 99.735 105.021 99.6549 104.842 99.6089C104.664 99.5628 104.478 99.5517 104.295 99.5761C104.112 99.6005 103.936 99.66 103.777 99.7512L99.151 102.359L98.8766 102.203V91.3926L150.5 120.489L84.8766 157.474L19.253 120.486L70.8794 91.3899V91.3899Z" fill="white"/>
</svg>
