<svg width="151" height="162" viewBox="0 0 151 162" fill="none" xmlns="http://www.w3.org/2000/svg">
<g clip-path="url(#clip0_28_1253)">
<path d="M136.277 69.9516C136.489 69.5553 136.638 69.1247 136.718 68.677L141.437 41.8437C141.737 40.0645 141.362 38.231 140.395 36.7465C139.427 35.262 137.946 34.2481 136.277 33.9279C134.609 33.6076 132.889 34.0072 131.497 35.0388C130.105 36.0705 129.154 37.6495 128.853 39.4287L126.525 52.8454C121.288 42.6481 113.462 34.2311 103.943 28.5597C94.4248 22.8883 83.5998 20.1922 72.7099 20.7804C61.82 21.3687 51.3061 25.2176 42.374 31.8856C33.4418 38.5537 26.4532 47.771 22.2095 58.4804C21.587 60.1264 21.6017 61.9683 22.2502 63.6029C22.8988 65.2374 24.1285 66.5313 25.6699 67.2012C26.4379 67.5402 27.2612 67.7136 28.0923 67.7114C28.9235 67.7092 29.746 67.5315 30.5124 67.1884C31.2787 66.8454 31.9737 66.3438 32.5572 65.7127C33.1408 65.0816 33.6012 64.3335 33.912 63.5116C37.3003 54.6352 43.1278 47.0592 50.6288 41.7793C58.1298 36.4993 66.9535 33.7623 75.9403 33.9279C83.8885 33.8883 91.7054 36.0886 98.5997 40.3059C105.494 44.5232 111.221 50.6078 115.2 57.9437L104.819 56.1324C103.993 55.9915 103.149 56.0254 102.335 56.2323C101.521 56.4392 100.753 56.815 100.075 57.3383C99.3977 57.8616 98.8232 58.522 98.3849 59.282C97.9466 60.0419 97.653 60.8865 97.5208 61.7674C97.3886 62.6484 97.4204 63.5485 97.6144 64.4163C97.8085 65.2841 98.161 66.1027 98.6517 66.8253C99.1425 67.5479 99.7619 68.1604 100.475 68.6277C101.187 69.0951 101.98 69.4082 102.806 69.5491L129.545 74.312H130.552C131.282 74.3214 132.008 74.1849 132.691 73.9095C132.922 73.8162 133.135 73.6799 133.32 73.507C133.771 73.3282 134.195 73.0795 134.579 72.7691L135.082 72.0983C135.408 71.7726 135.703 71.413 135.963 71.0249C136.116 70.6853 136.222 70.3237 136.277 69.9516ZM125.078 94.7724C124.306 94.4353 123.479 94.2651 122.645 94.2718C121.811 94.2785 120.987 94.462 120.22 94.8116C119.453 95.1612 118.759 95.6699 118.178 96.3081C117.597 96.9463 117.141 97.7012 116.836 98.5291C113.424 107.312 107.619 114.802 100.171 120.028C92.7226 125.254 83.9749 127.977 75.0595 127.845C67.1113 127.884 59.2944 125.684 52.4002 121.466C45.5059 117.249 39.7791 111.165 35.7995 103.829L46.1808 105.64H47.1874C48.8561 105.782 50.5094 105.212 51.7837 104.055C53.058 102.897 53.8489 101.247 53.9824 99.4683C54.1159 97.6891 53.5811 95.9263 52.4955 94.5676C51.41 93.2089 49.8627 92.3656 48.1941 92.2233L21.4545 87.5945C20.7682 87.4596 20.0646 87.4596 19.3783 87.5945H18.8749C18.1629 87.7965 17.4839 88.1132 16.8616 88.5337C16.4374 88.8831 16.0568 89.2889 15.7291 89.7412L15.1628 90.412C14.9684 90.8164 14.8205 91.2444 14.7224 91.6866C14.5019 92.0294 14.3519 92.4181 14.282 92.827L9.56326 119.66C9.36118 120.552 9.33273 121.478 9.47965 122.382C9.62658 123.286 9.94577 124.148 10.4175 124.915C10.8892 125.682 11.5035 126.338 12.2223 126.841C12.9411 127.345 13.7492 127.687 14.5966 127.845H15.7291C17.2189 127.87 18.669 127.332 19.8211 126.324C20.9733 125.317 21.7528 123.906 22.0208 122.344L24.3487 108.927C29.5803 119.127 37.402 127.548 46.9169 133.225C56.4318 138.902 67.2546 141.604 78.1442 141.023C89.0339 140.442 99.5494 136.6 108.485 129.938C117.421 123.277 124.414 114.065 128.665 103.359C129.241 101.712 129.188 99.8899 128.518 98.2841C127.847 96.6783 126.612 95.4173 125.078 94.7724Z" fill="white"/>
</g>
<defs>
<clipPath id="clip0_28_1253">
<rect width="151" height="161" fill="white" transform="translate(0 0.38623)"/>
</clipPath>
</defs>
</svg>
