<svg width="144" height="143" viewBox="0 0 144 143" fill="none" xmlns="http://www.w3.org/2000/svg">
<path d="M84.7284 56.3608C83.0569 54.7125 81.0725 53.4049 78.8886 52.5128C76.7047 51.6208 74.364 51.1616 72.0001 51.1616C69.6362 51.1616 67.2955 51.6208 65.1116 52.5128C62.9277 53.4049 60.9433 54.7125 59.2719 56.3608C59.057 56.5655 58.8855 56.8103 58.7676 57.081C58.6497 57.3517 58.5876 57.6428 58.585 57.9374C58.5824 58.232 58.6394 58.5242 58.7525 58.7969C58.8656 59.0696 59.0327 59.3173 59.244 59.5256C59.4552 59.7339 59.7064 59.8987 59.983 60.0102C60.2595 60.1218 60.5558 60.1779 60.8545 60.1754C61.1533 60.1728 61.4485 60.1116 61.723 59.9953C61.9975 59.8791 62.2458 59.71 62.4534 59.4981C63.707 58.2617 65.1953 57.2809 66.8334 56.6117C68.4714 55.9426 70.2271 55.5982 72.0001 55.5982C73.7731 55.5982 75.5288 55.9426 77.1669 56.6117C78.8049 57.2809 80.2932 58.2617 81.5469 59.4981C81.7544 59.71 82.0027 59.8791 82.2772 59.9953C82.5517 60.1116 82.847 60.1728 83.1457 60.1754C83.4445 60.1779 83.7407 60.1218 84.0173 60.0102C84.2938 59.8987 84.545 59.7339 84.7562 59.5256C84.9675 59.3173 85.1346 59.0696 85.2477 58.7969C85.3608 58.5242 85.4178 58.232 85.4152 57.9374C85.4126 57.6428 85.3505 57.3517 85.2326 57.081C85.1147 56.8103 84.9433 56.5655 84.7284 56.3608Z" fill="white"/>
<path d="M89.5051 53.8688C89.95 53.8687 90.3849 53.7385 90.7549 53.4947C91.1248 53.2509 91.4131 52.9044 91.5834 52.499C91.7536 52.0937 91.7982 51.6476 91.7114 51.2173C91.6246 50.787 91.4104 50.3917 91.0958 50.0814C86.0297 45.0902 79.1614 42.2866 72.0001 42.2866C64.8388 42.2866 57.9705 45.0902 52.9043 50.0814C52.6953 50.2874 52.5294 50.532 52.4162 50.8012C52.303 51.0704 52.2447 51.3589 52.2446 51.6503C52.2445 51.9418 52.3026 52.2304 52.4156 52.4997C52.5286 52.7689 52.6943 53.0136 52.9032 53.2198C53.1121 53.4259 53.3601 53.5895 53.6331 53.7011C53.9061 53.8127 54.1988 53.8702 54.4943 53.8703C54.7898 53.8704 55.0825 53.8131 55.3556 53.7017C55.6286 53.5903 55.8768 53.4269 56.0858 53.2209C60.3078 49.0611 66.0319 46.7245 72.0001 46.7245C77.9683 46.7245 83.6924 49.0611 87.9143 53.2209C88.3366 53.6362 88.9087 53.8692 89.5051 53.8688ZM78.7501 66.9483C78.7501 65.6318 78.3542 64.3449 77.6125 63.2503C76.8708 62.1557 75.8166 61.3025 74.5832 60.7987C73.3498 60.2949 71.9926 60.1631 70.6832 60.42C69.3739 60.6768 68.1711 61.3107 67.2271 62.2416C66.2831 63.1725 65.6402 64.3585 65.3798 65.6497C65.1193 66.9409 65.253 68.2793 65.7639 69.4955C66.2748 70.7118 67.14 71.7514 68.25 72.4828C69.36 73.2142 70.6651 73.6046 72.0001 73.6046C73.7903 73.6046 75.5072 72.9033 76.7731 71.655C78.0389 70.4067 78.7501 68.7137 78.7501 66.9483ZM72.0001 69.1671C71.5551 69.1671 71.1201 69.0369 70.7501 68.7931C70.38 68.5493 70.0917 68.2028 69.9214 67.7974C69.7511 67.392 69.7065 66.9458 69.7933 66.5154C69.8801 66.0851 70.0944 65.6897 70.4091 65.3794C70.7238 65.0691 71.1247 64.8578 71.5611 64.7722C71.9976 64.6866 72.45 64.7305 72.8611 64.8984C73.2723 65.0664 73.6237 65.3508 73.8709 65.7156C74.1181 66.0805 74.2501 66.5095 74.2501 66.9483C74.2501 67.5368 74.013 68.1011 73.5911 68.5172C73.1691 68.9333 72.5968 69.1671 72.0001 69.1671Z" fill="white"/>
<path d="M110.25 113.542C111.493 113.542 112.5 112.549 112.5 111.323C112.5 110.098 111.493 109.104 110.25 109.104C109.007 109.104 108 110.098 108 111.323C108 112.549 109.007 113.542 110.25 113.542Z" fill="white"/>
<path d="M12.7935 103.307C11.5419 106.55 11.0762 110.036 11.4333 113.488C11.7905 116.94 12.9607 120.261 14.8507 123.188C16.7406 126.115 19.2979 128.565 22.3187 130.345C25.3395 132.124 28.74 133.182 32.2492 133.436C33.0093 135.029 34.2958 136.32 35.8979 137.098C37.5 137.875 39.3225 138.093 41.0664 137.714C42.8103 137.336 44.3721 136.385 45.4957 135.016C46.6192 133.648 47.2378 131.944 47.25 130.183V92.4641C47.2378 90.7034 46.6192 88.999 45.4957 87.6305C44.3721 86.262 42.8103 85.3107 41.0664 84.9326C39.3225 84.5544 37.5 84.7719 35.8979 85.5494C34.2958 86.3269 33.0093 87.6181 32.2492 89.2114C30.2797 89.3371 28.3359 89.7206 26.469 90.3519C24.5985 86.0774 23.3698 81.5569 22.8217 76.9329C22.5953 75.1551 21.8227 73.4881 20.6077 72.1559C20.5137 65.2511 21.8474 58.3998 24.5274 52.02C27.2075 45.6403 31.1777 39.866 36.1957 35.0495C38.0169 34.9845 39.7671 34.3365 41.1817 33.2035C49.9342 26.3222 60.7959 22.5738 71.9897 22.5714C83.1836 22.5689 94.0469 26.3127 102.802 33.1902C104.221 34.3186 105.97 34.9659 107.791 35.0362C112.812 39.8527 116.785 45.6275 119.468 52.0084C122.151 58.3893 123.487 65.2423 123.394 72.1492C122.183 73.4928 121.41 75.1652 121.176 76.9484C120.628 81.5664 119.4 86.0809 117.531 90.3496C115.664 89.7184 113.72 89.3349 111.751 89.2092C110.991 87.6158 109.704 86.3244 108.101 85.547C106.499 84.7695 104.677 84.5522 102.932 84.9306C101.188 85.309 99.6266 86.2607 98.5032 87.6296C97.3799 88.9985 96.7616 90.7032 96.75 92.4641V130.183C96.7621 131.944 97.3807 133.648 98.5043 135.016C99.6278 136.385 101.19 137.336 102.934 137.714C104.677 138.093 106.5 137.875 108.102 137.098C109.704 136.32 110.991 135.029 111.751 133.436C115.26 133.182 118.66 132.124 121.681 130.345C124.702 128.565 127.259 126.115 129.149 123.188C131.039 120.261 132.209 116.94 132.567 113.488C132.924 110.036 132.458 106.55 131.206 103.307C135.293 95.9927 137.927 87.9765 138.967 79.6886C139.192 78.4687 139.154 77.2158 138.856 76.0113C138.558 74.8068 138.006 73.6776 137.236 72.6973C137.448 63.8036 135.773 54.9644 132.319 46.7463C128.865 38.5281 123.708 31.1123 117.178 24.9742C116.877 22.6931 115.694 20.6146 113.877 19.1721C101.952 9.8781 87.1972 4.82227 71.9977 4.82227C56.7982 4.82227 42.043 9.8781 30.1185 19.1721C28.3041 20.6141 27.1241 22.6909 26.8245 24.9697C20.2912 31.1106 15.1318 38.5304 11.6771 46.7529C8.22239 54.9755 6.54873 63.8194 6.76346 72.7172C5.35821 74.5236 4.70622 76.7913 4.94096 79.0562C5.92989 87.5674 8.59746 95.8057 12.7935 103.307ZM39.375 89.136C40.2701 89.136 41.1285 89.4866 41.7614 90.1108C42.3944 90.7349 42.75 91.5814 42.75 92.4641V130.183C42.75 131.066 42.3944 131.912 41.7614 132.536C41.1285 133.16 40.2701 133.511 39.375 133.511C38.4799 133.511 37.6214 133.16 36.9885 132.536C36.3555 131.912 36 131.066 36 130.183V109.797C36.3082 109.151 36 92.4641 36 92.4641C36 91.5814 36.3555 90.7349 36.9885 90.1108C37.6214 89.4866 38.4799 89.136 39.375 89.136ZM31.5 128.936C27.1492 128.396 23.1478 126.309 20.247 123.067C17.3462 119.824 15.7456 115.649 15.7456 111.325C15.7456 107.001 17.3462 102.825 20.247 99.5824C23.1478 96.3397 27.1492 94.2527 31.5 93.7133V128.936ZM22.1557 92.3443C20.3376 93.4191 18.6864 94.747 17.253 96.287C16.5732 97.0122 15.9391 97.7776 15.354 98.579C12.2253 92.2899 10.216 85.5173 9.41396 78.557C9.34202 77.9067 9.41444 77.2488 9.62619 76.6289C9.83794 76.0089 10.184 75.4419 10.6402 74.967C11.4538 74.1766 12.5338 73.709 13.6745 73.6534C14.8152 73.5977 15.9368 73.9579 16.8255 74.6653C17.6787 75.3641 18.2252 76.3609 18.351 77.4476C18.9401 82.54 20.2841 87.5194 22.3402 92.2267C22.275 92.2644 22.221 92.3044 22.1557 92.3443ZM128.646 98.5723C128.071 97.7849 127.448 97.0335 126.778 96.3225C125.279 94.7242 123.557 93.3444 121.664 92.2245C123.765 87.2489 125.164 82.0127 125.822 76.6622C126.047 76.0232 126.415 75.4425 126.9 74.9637C127.384 74.4848 127.972 74.1201 128.619 73.8969C129.267 73.6737 129.957 73.5978 130.638 73.6747C131.32 73.7517 131.975 73.9796 132.554 74.3414C133.29 74.8113 133.871 75.4832 134.225 76.2743C134.58 77.0654 134.692 77.9413 134.548 78.7944C133.727 85.6683 131.731 92.3555 128.646 98.5723ZM112.5 128.92V120.198C112.5 119.61 112.263 119.046 111.841 118.63C111.419 118.214 110.847 117.98 110.25 117.98C109.653 117.98 109.081 118.214 108.659 118.63C108.237 119.046 108 119.61 108 120.198V130.183C108 131.066 107.644 131.912 107.011 132.536C106.379 133.16 105.52 133.511 104.625 133.511C103.73 133.511 102.871 133.16 102.238 132.536C101.606 131.912 101.25 131.066 101.25 130.183V92.4641C101.25 91.5814 101.606 90.7349 102.238 90.1108C102.871 89.4866 103.73 89.136 104.625 89.136C105.52 89.136 106.379 89.4866 107.011 90.1108C107.644 90.7349 108 91.5814 108 92.4641V102.448C108 103.037 108.237 103.601 108.659 104.017C109.081 104.433 109.653 104.667 110.25 104.667C110.847 104.667 111.419 104.433 111.841 104.017C112.263 103.601 112.5 103.037 112.5 102.448V93.7266C114.907 94.0255 117.227 94.8038 119.32 96.0141C122.569 97.8803 125.143 100.704 126.68 104.089C128.216 107.473 128.637 111.248 127.885 114.881C127.132 118.514 125.242 121.822 122.482 124.341C119.723 126.859 116.231 128.461 112.5 128.92ZM132.723 69.5466C131.144 69.0972 129.474 69.0597 127.876 69.4379C127.362 56.1752 122.042 43.534 112.882 33.8092C114.296 32.9642 115.459 31.7684 116.257 30.3413C126.462 40.9599 132.326 54.9229 132.723 69.5466ZM32.9197 22.6467C44.0617 14.008 57.8242 9.31174 71.9977 9.31174C86.1712 9.31174 99.9337 14.008 111.076 22.6467C111.604 23.0594 112.034 23.5816 112.335 24.1763C112.636 24.771 112.8 25.4236 112.817 26.088H112.828C112.829 26.913 112.598 27.7222 112.162 28.4264C111.727 29.1307 111.102 29.7028 110.358 30.0798C109.614 30.4568 108.779 30.6242 107.944 30.5634C107.11 30.5027 106.308 30.2163 105.628 29.7356C96.0754 22.2243 84.2192 18.1337 72.0011 18.1337C59.783 18.1337 47.9268 22.2243 38.3737 29.7356C37.6301 30.3164 36.7078 30.6295 35.7592 30.6231L35.4442 30.6076C34.5381 30.5355 33.6745 30.1979 32.9642 29.6383C32.254 29.0788 31.7296 28.3226 31.4583 27.467C31.1869 26.6114 31.1811 25.6954 31.4415 24.8365C31.7019 23.9776 32.2167 23.215 32.9197 22.6467ZM27.7447 30.3347C28.1797 31.0979 28.7087 31.8051 29.3197 32.4403C29.8751 32.9509 30.4777 33.4093 31.1197 33.8092C21.9593 43.5337 16.6385 56.1749 16.1235 69.4379C14.5246 69.0698 12.8572 69.1072 11.277 69.5466C11.676 54.9214 17.5426 40.9576 27.7492 30.3391L27.7447 30.3347Z" fill="white"/>
<path d="M69.75 91.3545V131.292C69.75 131.88 69.9871 132.445 70.409 132.861C70.831 133.277 71.4033 133.511 72 133.511C72.5967 133.511 73.169 133.277 73.591 132.861C74.0129 132.445 74.25 131.88 74.25 131.292V91.3545C74.25 90.766 74.0129 90.2017 73.591 89.7856C73.169 89.3695 72.5967 89.1357 72 89.1357C71.4033 89.1357 70.831 89.3695 70.409 89.7856C69.9871 90.2017 69.75 90.766 69.75 91.3545ZM60.75 98.0107V124.636C60.75 125.224 60.9871 125.789 61.409 126.205C61.831 126.621 62.4033 126.854 63 126.854C63.5967 126.854 64.169 126.621 64.591 126.205C65.0129 125.789 65.25 125.224 65.25 124.636V98.0107C65.25 97.4223 65.0129 96.8579 64.591 96.4418C64.169 96.0258 63.5967 95.792 63 95.792C62.4033 95.792 61.831 96.0258 61.409 96.4418C60.9871 96.8579 60.75 97.4223 60.75 98.0107ZM81 126.854C81.5967 126.854 82.169 126.621 82.591 126.205C83.0129 125.789 83.25 125.224 83.25 124.636V98.0107C83.25 97.4223 83.0129 96.8579 82.591 96.4418C82.169 96.0258 81.5967 95.792 81 95.792C80.4033 95.792 79.831 96.0258 79.409 96.4418C78.9871 96.8579 78.75 97.4223 78.75 98.0107V124.636C78.75 125.224 78.9871 125.789 79.409 126.205C79.831 126.621 80.4033 126.854 81 126.854ZM51.75 117.979C51.75 118.568 51.9871 119.132 52.409 119.548C52.831 119.964 53.4033 120.198 54 120.198C54.5967 120.198 55.169 119.964 55.591 119.548C56.0129 119.132 56.25 118.568 56.25 117.979V104.667C56.25 104.079 56.0129 103.514 55.591 103.098C55.169 102.682 54.5967 102.448 54 102.448C53.4033 102.448 52.831 102.682 52.409 103.098C51.9871 103.514 51.75 104.079 51.75 104.667V117.979ZM92.25 104.667C92.25 104.079 92.0129 103.514 91.591 103.098C91.169 102.682 90.5967 102.448 90 102.448C89.4033 102.448 88.831 102.682 88.409 103.098C87.9871 103.514 87.75 104.079 87.75 104.667V117.979C87.75 118.568 87.9871 119.132 88.409 119.548C88.831 119.964 89.4033 120.198 90 120.198C90.5967 120.198 91.169 119.964 91.591 119.548C92.0129 119.132 92.25 118.568 92.25 117.979V104.667Z" fill="white"/>
</svg>
