<svg width="147" height="145" viewBox="0 0 147 145" fill="none" xmlns="http://www.w3.org/2000/svg">
<path fill-rule="evenodd" clip-rule="evenodd" d="M37.7827 74.6672L37.9351 74.6113C48.2142 70.8423 55.3984 63.9083 59.536 55.6928L58.612 143.925L63.6117 143.977L64.6051 49.1053L64.6052 49.0922V49.0791V1.89163H59.6052V19.7429C55.2036 10.8706 47.3222 3.49771 36.0219 0L35.4172 1.95363L33.013 0.843987L5 61.5388V1.89163H0V72.9212V143.951H5V83.8791L11.8178 98.7544L33.0102 144.992L36.3665 143.454H37.7827V74.6672ZM37.7827 69.3024C66.003 57.5214 65.5156 17.3927 37.7827 5.94201V37.6547V69.3024ZM32.7827 72.9211V132.496L16.3632 96.6711L8.09464 78.6307L5.6562 73.3104L5.36601 72.6773L32.7827 13.2744V37.6547V72.9211ZM83.0685 2.19792L99.0685 144.198H104.037L115.053 46.4334V73.4509V143.984H120.053V87.9481L140.197 144.754L144.909 143.082L120.745 74.9393C155.58 61.6503 154.115 11.618 118.292 0.529785L117.852 1.9517L115.068 1.63808L101.553 121.59L88.037 1.63808L83.0685 2.19792ZM120.053 6.47179V38.1844V69.8322C148.273 58.0511 147.786 17.9225 120.053 6.47179Z" fill="#FF00B8"/>
</svg>
