<svg width="344" height="24" viewBox="0 0 344 24" fill="none" xmlns="http://www.w3.org/2000/svg">
<path d="M2 10.5L0.5 10.5L0.5 13.5L2 13.5L2 10.5ZM343.061 13.0607C343.646 12.4749 343.646 11.5252 343.061 10.9394L333.515 1.39344C332.929 0.807648 331.979 0.807648 331.393 1.39344C330.808 1.97922 330.808 2.92897 331.393 3.51476L339.879 12L331.393 20.4853C330.808 21.0711 330.808 22.0209 331.393 22.6066C331.979 23.1924 332.929 23.1924 333.515 22.6066L343.061 13.0607ZM2 13.5L342 13.5L342 10.5L2 10.5L2 13.5Z" fill="white"/>
</svg>
